<svg width="34" height="32" viewBox="0 0 34 32" fill="none" xmlns="http://www.w3.org/2000/svg">
<path d="M18.5 2C22.0592 2 24.9414 4.98261 24.9414 8.41905C25.4572 8.29056 25.9981 8.22222 26.5555 8.22222C30.1148 8.22222 33 11.008 33 14.4444C33 16.9277 31.4933 19.0714 29.3143 20.0693C30.1116 21.105 30.5833 22.3882 30.5833 23.7778C30.5833 27.2142 27.6981 30 24.1389 30C21.7125 30 19.5994 28.7053 18.5 26.7924C17.4007 28.7053 15.2876 30 12.8611 30C9.30195 30 6.41667 27.2142 6.41667 23.7778C6.41667 22.3882 6.88845 21.105 7.6858 20.0693C5.50678 19.0714 4 16.9277 4 14.4444C4 11.008 6.88528 8.22222 10.4445 8.22222C11.0019 8.22222 11.5428 8.29056 12.0587 8.41903C12.0587 4.98259 14.9409 2 18.5 2Z" fill="#E7D6A8" stroke="#E7D6A8" stroke-width="1.5" stroke-linejoin="round"/>
<path d="M16.5 2C20.0592 2 22.9414 4.98261 22.9414 8.41905C23.4572 8.29056 23.9981 8.22222 24.5555 8.22222C28.1148 8.22222 31 11.008 31 14.4444C31 16.9277 29.4933 19.0714 27.3143 20.0693C28.1116 21.105 28.5833 22.3882 28.5833 23.7778C28.5833 27.2142 25.6981 30 22.1389 30C19.7125 30 17.5994 28.7053 16.5 26.7924C15.4007 28.7053 13.2876 30 10.8611 30C7.30195 30 4.41667 27.2142 4.41667 23.7778C4.41667 22.3882 4.88845 21.105 5.6858 20.0693C3.50678 19.0714 2 16.9277 2 14.4444C2 11.008 4.88528 8.22222 8.44446 8.22222C9.00192 8.22222 9.54283 8.29056 10.0587 8.41903C10.0587 4.98259 12.9409 2 16.5 2Z" stroke="white" stroke-width="3" stroke-linejoin="round"/>
</svg>
