<svg width="22" height="20" viewBox="0 0 22 20" fill="none" xmlns="http://www.w3.org/2000/svg">
<g clip-path="url(#clip0_41_1449)">
<path d="M5.13317 16.6667L3.6665 14.6667V10.6667H5.8665H6.59984H8.79984L11.7332 11.3333L13.9332 12H14.6665H16.8665H18.3332V12.6667V14.6667L16.8665 16.6667L16 18L13.5 19L10.9998 19.3333L9 19L6.43896 18.6667L5.13317 16.6667Z" fill="#4069FF"/>
<path d="M3.2085 12.7317C3.2085 9.24489 6.49089 5.79922 8.79478 3.81018C10.046 2.72994 11.9543 2.72994 13.2056 3.81018C15.5094 5.79922 18.7918 9.24489 18.7918 12.7317C18.7918 16.1503 15.8413 19.6667 11.0002 19.6667C6.15904 19.6667 3.2085 16.1503 3.2085 12.7317Z" stroke="black"/>
<path d="M2.93311 10.7929C4.40994 10.5912 7.36129 10.526 10.9838 11.4229C14.5995 12.3181 17.5701 11.9993 19.0664 11.6157" stroke="#4069FF" stroke-linecap="round" stroke-linejoin="round"/>
</g>
<defs>
<clipPath id="clip0_41_1449">
<rect width="22" height="20" fill="white"/>
</clipPath>
</defs>
</svg>
