<svg width="235" height="217" viewBox="0 0 235 217" fill="none" xmlns="http://www.w3.org/2000/svg">
<path d="M160 14.1596C155.2 10.5596 147.167 5.99304 143.5 4.6597C134.5 -0.340195 108.031 -2.85605 92.0001 5.1596C76.0001 13.1597 38.0001 39.1597 23.5001 54.6596C9.19854 69.9474 8.00006 78.1597 5.00006 85.1597C2.00006 92.1597 1.12186e-05 106.148 0 117.16C-1.12019e-05 128.16 1.94507 136.5 5.50001 149.16C8.06481 158.293 17.2882 167.9 23.5 173.16C27.4451 176.5 47.4451 192.5 67.5 203.66C80.6146 210.957 92.5 215.16 101.5 216.16C107.5 216.826 117 217.66 117 215.16C117 212.66 116 153.16 116 150.16C116 148.16 116 147.16 114 147.16C110 147.16 45 146.66 39 146.16C33 145.66 30.0001 137.16 30.0001 133.66V133.659C30.0001 132.278 30.0001 130.66 32.5 130.66H93.5001C95.5001 130.66 97.5001 130.66 95.0001 128.16C92.5001 125.66 61 95.1596 59.5 93.1596C56.9451 89.753 56.9451 85 60 81.6597C62.4333 78.999 66.9451 78.6047 70 81.6597C72.5 84.1597 112.225 121.885 113.5 123.16C114.5 124.16 116.5 124.66 116.5 122.66C116.5 119.16 116.571 94.658 116.5 93.1597C116.445 92 115.635 90.7945 114 89.1596C111 86.1596 100.364 76.4799 98.5 73.1597C96.4451 69.5 95.9451 65.1596 98.9451 62.5C102.649 59.2164 106.121 59.6728 108.5 61.1597C111.445 63 119.451 73.6102 122 76.1597C123.5 77.6597 125.39 77.4051 126.945 76.1597C130.89 73.0001 135 69.1596 139.5 65.1596C144 61.1596 147.945 61.5 151 65.1596C153.311 67.9275 153.945 73 149.945 76.6596C145.739 80.5078 135.5 89.1596 133.5 90.6596C131.5 92.1596 131 92.6596 131 96.6596V133.66C131 136.16 132.667 136.493 133.5 135.66C136 133.16 167 104.66 174.5 98.1597C181.353 92.2203 186.555 93.8192 188.5 96.6596C190.445 99.5 191.945 103.715 188.5 107.16C183.5 112.16 136 154.16 133.5 156.16C132.5 156.96 131.5 159.021 131.5 161.16V213.16C131.5 214.66 132.002 216.091 133.5 216.16C144.5 216.66 171.5 206.16 178 200.16C180.296 198.041 180.5 197.5 180.5 195.66C180.5 179.656 180.377 149.083 181 144.66C181.445 141.5 185.759 140.581 188.5 140.16C195 139.16 195.945 143 196 145.16C196.065 147.708 196 180.66 196 182.66C196 184.16 196.5 185.16 198 184.66C200.83 183.716 217.144 167.773 223 160.16C229.445 151.781 234 131.16 234.5 122.66C235 114.16 234 92.6596 230.5 81.1596C227 69.6596 216 57.6596 211 52.6596C206 47.6596 166 18.6596 160 14.1596Z" fill="white"/>
</svg>
