<svg width="22" height="20" viewBox="0 0 22 20" fill="none" xmlns="http://www.w3.org/2000/svg">
<path d="M15.1252 18.3333C17.1502 18.3333 18.7918 16.8409 18.7918 15C18.7918 14.1112 18.4093 13.3038 17.7857 12.7062C17.3212 12.2612 17.0889 12.0386 17.0238 11.8899C16.9585 11.7412 16.9585 11.5446 16.9585 11.1512V3.33333C16.9585 2.41286 16.1377 1.66666 15.1252 1.66666C14.1126 1.66666 13.2918 2.41286 13.2918 3.33333V11.1512C13.2918 11.5446 13.2918 11.7412 13.2266 11.8899C13.1614 12.0386 12.9291 12.2612 12.4646 12.7062C11.841 13.3038 11.4585 14.1112 11.4585 15C11.4585 16.8409 13.1002 18.3333 15.1252 18.3333Z" stroke="black" stroke-linecap="round" stroke-linejoin="round"/>
<path d="M9.45402 13.1919C7.95492 12.9513 6.74985 11.7533 6.60322 10.2172C6.42942 8.39666 7.80838 6.7905 9.68328 6.6299C9.97625 6.6048 10.2641 6.6165 10.5418 6.66105M9.36859 3.33333L9.46291 4.3223M5.53867 6.31309L4.75179 5.67548M4.22691 10.4208L3.2085 10.5081M6.29561 14.239L5.64224 15" stroke="#DF911C" stroke-linecap="round"/>
</svg>
