<svg width="22" height="21" viewBox="0 0 22 21" fill="none" xmlns="http://www.w3.org/2000/svg">
<path d="M15.6251 18.5714C17.5976 18.5714 19.1966 17.0596 19.1966 15.1948C19.1966 14.2945 18.824 13.4766 18.2166 12.8713C17.7642 12.4204 17.5379 12.1949 17.4744 12.0443C17.4109 11.8937 17.4109 11.6945 17.4109 11.2961V3.37662C17.4109 2.44419 16.6114 1.68831 15.6251 1.68831C14.6389 1.68831 13.8394 2.44419 13.8394 3.37662V11.2961C13.8394 11.6945 13.8394 11.8937 13.7759 12.0443C13.7124 12.1949 13.4861 12.4204 13.0337 12.8713C12.4263 13.4766 12.0537 14.2945 12.0537 15.1948C12.0537 17.0596 13.6527 18.5714 15.6251 18.5714Z" stroke="black" stroke-linecap="round" stroke-linejoin="round"/>
<path d="M8.07609 4.22078V7.30722M8.07609 7.30722V12.1084M8.07609 7.30722L9.90238 5.59253M8.07609 7.30722L6.24979 5.59253M8.07609 12.1084L8.07609 15.1948M8.07609 12.1084L6.24979 13.8231M8.07609 12.1084L9.90238 13.8231M3.69297 7.9931L5.51927 9.70779M5.51927 9.70779L3.69297 11.4224M5.51927 9.70779H10.2676M5.51927 9.70779H2.23193" stroke="#32B3DB" stroke-linecap="round" stroke-linejoin="round"/>
</svg>
