<svg width="447" height="110" viewBox="0 0 447 110" fill="none" xmlns="http://www.w3.org/2000/svg">
<rect width="447" height="110" fill="#CB9F03"/>
<path d="M35.9395 41.9971C35.9395 43.667 36.2324 44.8096 36.8184 45.4248C37.4336 46.0107 38.7812 46.3037 40.8613 46.3037H42.9707C45.9883 46.3037 48.4492 45.1758 50.3535 42.9199C52.2578 40.6641 53.21 37.4707 53.21 33.3398L53.166 32.9004C53.166 28.7402 52.082 25.4736 49.9141 23.1006C47.7461 20.7275 44.9922 19.541 41.6523 19.541H40.5537C38.0928 19.541 36.6426 20.1416 36.2031 21.3428C36.0566 21.7236 35.9834 23.9355 35.9834 27.9785V34.6582L35.9395 36.3281V41.9971ZM17.9658 72.8027C17.9658 70.7812 18.8301 69.1846 20.5586 68.0127C22.2871 66.8115 23.2832 65.4785 23.5469 64.0137C23.957 61.6992 24.1621 55.0928 24.1621 44.1943C24.1621 33.2959 23.8984 26.7627 23.3711 24.5947C22.8438 22.3975 22.0967 20.8887 21.1299 20.0684C19.0205 18.3105 17.9658 17.168 17.9658 16.6406V15.9375C17.9658 14.7363 19.0645 13.9746 21.2617 13.6523C21.877 13.5645 24.9971 13.5205 30.6221 13.5205L36.4229 13.4326H37.5654L41.0371 13.5645H44.5527C54.9238 13.5645 61.8379 16.7725 65.2949 23.1885C66.6133 25.6494 67.2725 28.2568 67.2725 31.0107V32.2412C67.2725 37.1631 65.4707 41.3232 61.8672 44.7217C58.2637 48.0908 53.1807 50.0684 46.6182 50.6543C42.751 51.0059 40.5684 51.2988 40.0703 51.5332C38.1074 52.4121 37.126 55.6787 37.126 61.333C37.126 63.9404 38.0342 65.9766 39.8506 67.4414C42.2822 69.4043 43.498 71.0596 43.498 72.4072C43.498 73.4619 42.3701 74.1943 40.1143 74.6045C37.8877 75.0146 34.6504 75.2197 30.4023 75.2197C22.1113 75.2197 17.9658 74.4141 17.9658 72.8027ZM93.4199 37.3389H92.585C90.0654 37.3389 88 38.7598 86.3887 41.6016C84.8066 44.4434 84.0156 47.8418 84.0156 51.7969V54.2578C84.0156 58.7109 84.9385 62.4756 86.7842 65.5518C88.6299 68.6279 90.8418 70.166 93.4199 70.166H94.2549C96.5107 70.166 98.4736 69.0234 100.144 66.7383C101.843 64.4238 102.692 61.3477 102.692 57.5098L102.78 56.5869L102.824 54.7412V54.2578L102.78 53.7744V52.8516C102.722 52.207 102.692 51.7383 102.692 51.4453C102.692 47.5488 101.77 44.2236 99.9238 41.4697C98.0781 38.7158 95.9102 37.3389 93.4199 37.3389ZM93.4639 31.4941H95.6611C98.2686 31.4941 100.949 32.1094 103.703 33.3398C108.947 35.6836 112.551 39.4922 114.514 44.7656C115.51 47.4902 116.008 50.2734 116.008 53.1152V53.9062C116.008 56.9531 115.393 59.9414 114.162 62.8711C112.932 65.8008 111.276 68.2324 109.196 70.166C104.86 74.0918 99.8799 76.0547 94.2549 76.0547C93.8154 76.0547 93.376 76.04 92.9365 76.0107C90.124 76.0107 87.3555 75.4541 84.6309 74.3408C81.9355 73.1982 79.7236 71.6895 77.9951 69.8145C74.2744 65.7129 72.4141 60.5713 72.4141 54.3896V53.6426L72.458 52.8955C72.4873 50.1709 73 47.4756 73.9961 44.8096C75.9297 39.7119 79.4746 35.9473 84.6309 33.5156C87.5312 32.168 90.4756 31.4941 93.4639 31.4941ZM122.204 14.0479C122.204 12.9932 122.966 12.2314 124.489 11.7627C128.62 10.5029 132.575 9.87305 136.354 9.87305C138.581 9.87305 139.812 10.8398 140.046 12.7734C140.104 13.2422 140.134 21.0937 140.134 36.3281C140.134 51.5625 140.383 60.5713 140.881 63.3545C141.408 66.1084 142.111 67.9834 142.99 68.9795C145.217 71.499 146.33 72.8174 146.33 72.9346C146.33 74.3408 142.404 75.0439 134.553 75.0439H133.674L132.751 75C128.063 75 125.251 74.8828 124.313 74.6484C123.405 74.4141 122.951 73.8721 122.951 73.0225C122.951 72.1436 123.669 70.8252 125.104 69.0674C126.54 67.2803 127.448 65.4053 127.829 63.4424C128.21 61.4502 128.4 54.126 128.4 41.4697C128.4 28.8135 128.195 21.7969 127.785 20.4199C127.375 19.0137 126.335 17.7832 124.665 16.7285C123.024 15.6445 122.204 14.751 122.204 14.0479ZM152.175 14.0479C152.175 12.9932 152.937 12.2314 154.46 11.7627C158.591 10.5029 162.546 9.87305 166.325 9.87305C168.552 9.87305 169.782 10.8398 170.017 12.7734C170.075 13.2422 170.104 21.0937 170.104 36.3281C170.104 51.5625 170.354 60.5713 170.852 63.3545C171.379 66.1084 172.082 67.9834 172.961 68.9795C175.188 71.499 176.301 72.8174 176.301 72.9346C176.301 74.3408 172.375 75.0439 164.523 75.0439H163.645L162.722 75C158.034 75 155.222 74.8828 154.284 74.6484C153.376 74.4141 152.922 73.8721 152.922 73.0225C152.922 72.1436 153.64 70.8252 155.075 69.0674C156.511 67.2803 157.419 65.4053 157.8 63.4424C158.181 61.4502 158.371 54.126 158.371 41.4697C158.371 28.8135 158.166 21.7969 157.756 20.4199C157.346 19.0137 156.306 17.7832 154.636 16.7285C152.995 15.6445 152.175 14.751 152.175 14.0479ZM187.595 18.0029C187.595 16.3037 188.254 14.8682 189.572 13.6963C190.92 12.5244 192.37 11.9385 193.923 11.9385H195.329C195.769 12.0264 196.135 12.0703 196.428 12.0703C197.834 12.0703 199.079 12.7002 200.163 13.96C201.247 15.2197 201.789 16.4209 201.789 17.5635V18.7061C201.73 18.999 201.701 19.2188 201.701 19.3652C201.701 20.5957 201.013 21.7969 199.636 22.9688C198.259 24.1406 196.735 24.7266 195.065 24.7266H193.703C192.062 24.7266 190.642 24.2139 189.44 23.1885C188.269 22.1338 187.683 20.9326 187.683 19.585L187.595 19.1455V18.0029ZM195.944 75.1758H191.77C187.873 75.1758 185.529 75.0732 184.738 74.8682C183.977 74.6338 183.596 74.0039 183.596 72.9785C183.596 71.9238 184.328 70.6641 185.793 69.1992C187.258 67.7344 188.181 66.2695 188.562 64.8047C188.942 63.3105 189.133 59.458 189.133 53.2471C189.133 47.0068 188.972 43.3301 188.649 42.2168C188.327 41.1035 187.316 40.1514 185.617 39.3604C183.947 38.54 183.112 37.5732 183.112 36.46C183.112 35.3174 183.889 34.4824 185.441 33.9551C188.957 32.7832 192.839 32.1973 197.087 32.1973H197.746C199.445 32.1973 200.427 32.915 200.69 34.3506C200.837 35.1709 200.91 40.0928 200.91 49.1162C200.91 58.1104 201.101 63.3838 201.481 64.9365C201.892 66.46 202.917 68.0859 204.558 69.8145C206.198 71.543 207.019 72.627 207.019 73.0664V73.5938C207.019 74.6484 203.327 75.1758 195.944 75.1758ZM263.972 71.9238C263.972 73.0078 263.078 73.8135 261.291 74.3408C259.533 74.8389 256.56 75.0879 252.37 75.0879C248.21 75.0879 245.72 74.7949 244.899 74.209C244.079 73.623 243.669 72.9346 243.669 72.1436C243.669 71.3232 244.035 70.0928 244.768 68.4521C245.529 66.8115 245.998 65.4932 246.174 64.4971C246.35 63.501 246.438 60.1318 246.438 54.3896C246.438 48.6475 245.939 44.7363 244.943 42.6562C243.977 40.5469 242.058 39.4922 239.187 39.4922C236.315 39.4922 233.986 40.7373 232.199 43.2275C230.998 44.8975 230.397 47.959 230.397 52.4121C230.397 59.7656 231.071 65.1562 232.419 68.584C233.239 70.5762 233.649 71.8652 233.649 72.4512C233.649 73.5645 232.976 74.2676 231.628 74.5605C230.28 74.8242 227.351 74.9561 222.839 74.9561C218.356 74.9561 215.646 74.6631 214.709 74.0771C213.771 73.4619 213.303 72.6416 213.303 71.6162C213.303 70.5908 214.079 69.5654 215.632 68.54C217.185 67.5146 218.063 66.5918 218.269 65.7715C218.474 64.9219 218.576 61.2012 218.576 54.6094C218.576 47.9883 218.356 44.1211 217.917 43.0078C217.478 41.8652 216.599 40.5469 215.28 39.0527C213.962 37.5586 213.303 36.7969 213.303 36.7676V35.8447C213.303 35.3467 213.669 34.8926 214.401 34.4824C216.95 33.0176 220.744 32.2852 225.783 32.2852C227.189 32.2852 228.361 32.9736 229.299 34.3506C230.266 35.7275 230.969 36.416 231.408 36.416C231.848 36.416 232.873 35.9473 234.484 35.0098C236.125 34.043 237.019 33.5303 237.165 33.4717C239.509 32.3877 241.691 31.8457 243.713 31.8457H245.119C250.246 31.8457 253.908 33.8965 256.105 37.998C257.512 40.6641 258.215 47.0654 258.215 57.2021C258.215 62.6221 258.391 65.7129 258.742 66.4746C259.094 67.2363 260.046 68.1152 261.599 69.1113C263.181 70.0781 263.972 71.0156 263.972 71.9238ZM294.47 57.0264C294.47 55.708 294.06 55.0488 293.239 55.0488H292.097C291.364 55.1953 290.808 55.2686 290.427 55.2686C287.761 55.2686 285.52 56.0449 283.703 57.5977C281.887 59.1504 280.979 60.9082 280.979 62.8711V63.8818C280.979 65.376 281.447 66.665 282.385 67.749C283.322 68.833 284.465 69.375 285.812 69.375H287.219C289.152 69.375 290.808 68.7744 292.185 67.5732C293.562 66.3721 294.25 65.2002 294.25 64.0576C294.367 63.4717 294.426 63.0908 294.426 62.915L294.514 62.2119V60.3223L294.558 59.6191V57.6855C294.499 57.3926 294.47 57.1729 294.47 57.0264ZM312.312 70.957V71.6162C312.312 72.6123 311.213 73.5498 309.016 74.4287C306.818 75.2783 304.211 75.7031 301.193 75.7031C299.348 75.7031 297.751 74.8682 296.403 73.1982C295.671 72.2607 295.1 71.792 294.689 71.792C294.279 71.7627 293.576 72.0996 292.58 72.8027C289.24 75.0879 285.637 76.2305 281.77 76.2305C281.74 76.2305 281.711 76.2451 281.682 76.2744C277.873 76.2744 274.826 75.293 272.541 73.3301C270.256 71.3672 269.099 68.6133 269.069 65.0684C269.069 57.4512 274.929 52.6611 286.647 50.6982C289.46 50.2588 291.145 49.9219 291.701 49.6875C293.4 48.9844 294.25 47.417 294.25 44.9854C294.25 42.5537 293.693 40.8105 292.58 39.7559C291.496 38.6719 290.222 38.1299 288.757 38.1299C286.442 38.1299 284.348 39.375 282.473 41.8652C280.598 44.3262 278.415 45.5566 275.925 45.5566C274.46 45.5566 273.347 45.1611 272.585 44.3701C271.853 43.5498 271.486 42.7148 271.486 41.8652C271.486 39.2871 272.834 37.2363 275.529 35.7129C280.012 33.1934 284.758 31.9336 289.768 31.9336H292.053C294.572 31.9336 296.975 32.4756 299.26 33.5596C301.574 34.6143 303.361 36.2402 304.621 38.4375C305.881 40.6348 306.511 45.542 306.511 53.1592C306.511 60.7764 306.745 65.1709 307.214 66.3428C307.712 67.4854 308.679 68.335 310.114 68.8916C311.579 69.4189 312.312 70.1074 312.312 70.957ZM319.387 38.5254C318.098 37.6465 317.453 36.7969 317.453 35.9766C317.453 35.127 318.229 34.292 319.782 33.4717C321.335 32.6514 322.302 31.9922 322.683 31.4941C323.063 30.9961 323.664 29.6191 324.484 27.3633C325.334 25.1074 326.228 23.3789 327.165 22.1777C328.103 20.9473 329.333 20.332 330.856 20.332C332.38 20.332 333.479 20.9473 334.152 22.1777C334.445 22.7344 334.826 24.0527 335.295 26.1328C335.793 28.2129 336.379 29.5459 337.053 30.1318C337.727 30.7178 339.016 31.377 340.92 32.1094C342.824 32.8125 343.806 33.1787 343.864 33.208C344.86 33.999 345.358 34.9365 345.358 36.0205C345.358 36.958 343.967 37.793 341.184 38.5254C338.43 39.2578 336.657 40.3711 335.866 41.8652C335.104 43.3594 334.724 47.0947 334.724 53.0713C334.724 59.0479 335.178 62.9297 336.086 64.7168C337.023 66.5039 338.547 67.3975 340.656 67.3975L342.238 67.2656C342.941 67.207 343.703 67.1777 344.523 67.1777C346.311 67.1777 347.204 67.8516 347.204 69.1992C347.204 70.9277 346.12 72.3047 343.952 73.3301C340.847 74.7949 337.565 75.5273 334.108 75.5273C332.497 75.5273 330.886 75.0879 329.274 74.209C327.663 73.3301 326.433 72.2607 325.583 71.001C323.913 68.54 323.078 65.0244 323.078 60.4541L323.034 59.5312C323.005 58.8867 322.99 58.1689 322.99 57.3779V54.7852C322.99 49.7168 322.58 45.3955 321.76 41.8213C321.467 40.5029 320.676 39.4043 319.387 38.5254Z" fill="white"/>
<path d="M420.302 36.6357C423.7 34.292 426.601 33.1201 429.003 33.1201C431.405 33.1201 433.031 33.6328 433.881 34.6582C434.76 35.6836 435.199 36.9141 435.199 38.3496C435.199 39.7852 434.804 41.0742 434.013 42.2168C433.251 43.3301 432.372 43.8867 431.376 43.8867C430.409 43.8867 429.062 43.5059 427.333 42.7441C425.604 41.9824 424.271 41.6016 423.334 41.6016C422.396 41.6016 421.342 42.0996 420.17 43.0957C418.998 44.0918 418.178 45.5127 417.709 47.3584C417.27 49.2041 417.05 52.1045 417.05 56.0596C417.05 59.9854 417.328 62.5342 417.885 63.7061C418.441 64.8486 419.584 66.3574 421.312 68.2324C423.041 70.1074 423.905 71.6455 423.905 72.8467C423.905 74.2529 420.507 74.9561 413.71 74.9561H409.931L409.008 74.9121C408.393 74.8828 407.763 74.8682 407.118 74.8682L406.195 74.8242C405.58 74.7949 404.936 74.7803 404.262 74.7803C401.186 74.7803 399.647 74.1211 399.647 72.8027C399.647 71.4844 400.409 70.1514 401.933 68.8037C403.485 67.4561 404.423 66.2402 404.745 65.1562C405.097 64.0723 405.272 60.3516 405.272 53.9941C405.272 47.6367 405.067 43.8281 404.657 42.5684C404.276 41.3086 403.324 40.2393 401.801 39.3604C400.307 38.4521 399.56 37.5146 399.56 36.5479C399.56 35.2002 400.57 34.248 402.592 33.6914C405.639 32.8711 408.393 32.4609 410.854 32.4609C413.314 32.4609 414.97 32.7393 415.819 33.2959C416.171 33.5303 416.566 34.2773 417.006 35.5371C417.475 36.7969 418.017 37.4268 418.632 37.4268C418.896 37.4268 419.452 37.1631 420.302 36.6357Z" fill="white"/>
<path d="M361.283 54.6689C361.283 54.083 361.649 53.2188 362.382 52.0762C363.114 50.9336 363.48 50.1279 363.48 49.6592C363.48 49.5713 363.026 49.2783 362.118 48.7803C361.239 48.2529 360.287 47.374 359.262 46.1436C358.236 44.8838 357.724 43.8584 357.724 43.0674C357.724 42.2764 358.207 41.4707 359.174 40.6504C360.17 39.8008 361.107 39.376 361.986 39.376C362.895 39.376 364.755 40.2842 367.567 42.1006C368.388 42.6279 369.003 42.8916 369.413 42.8916C369.882 42.8916 370.116 42.584 370.116 41.9688L370.028 41.1338L369.765 39.2881C369.56 37.5303 369.457 36.0508 369.457 34.8496C369.457 33.6191 369.75 32.667 370.336 31.9932C370.922 31.3193 372.021 30.9824 373.632 30.9824C375.243 30.9824 376.342 31.3047 376.928 31.9492C377.543 32.5645 377.851 33.9854 377.851 36.2119C377.851 36.5342 377.675 37.8965 377.323 40.2988C377.118 41.793 377.016 42.833 377.016 43.4189C377.016 43.7705 377.06 43.9463 377.147 43.9463C377.528 43.9463 378.905 43.126 381.278 41.4854C383.681 39.8154 385.321 38.9805 386.2 38.9805C387.079 38.9805 388.002 39.4199 388.969 40.2988C389.936 41.1777 390.419 42.2617 390.419 43.5508C390.419 45.1914 388.5 46.8906 384.662 48.6484C383.08 49.3516 382.289 49.791 382.289 49.9668C382.289 50.9922 382.816 51.8857 383.871 52.6475C385.834 54.083 386.815 55.7529 386.815 57.6572C386.815 59.5322 386.303 60.4697 385.277 60.4697C383.549 60.4697 382.011 60.25 380.663 59.8105C379.345 59.3711 378.51 59.1514 378.158 59.1514C377.953 59.1514 377.382 59.7959 376.444 61.085C375.507 62.374 373.734 63.0186 371.127 63.0186H370.644C370.351 63.0186 369.926 62.5938 369.369 61.7441C368.168 59.957 367.084 59.0635 366.117 59.0635L363.129 59.2832C361.898 59.2832 361.283 57.7451 361.283 54.6689Z" fill="white"/>
<path d="M389.293 76.0406C388.867 75.7102 388.309 75.307 387.635 75.6697C387.461 75.7717 387.262 75.8229 387.062 75.8178C386.861 75.8126 386.665 75.7513 386.497 75.6406C386.02 75.3467 385.453 75.2397 384.904 75.3399C384.696 75.3799 384.483 75.3759 384.277 75.3282C383.817 75.1983 383.328 75.2243 382.885 75.4022C382.475 75.5029 382.073 75.629 381.679 75.7798C381.411 75.8928 381.122 75.9426 380.833 75.9254C380.543 75.9083 380.262 75.8246 380.009 75.6809C379.843 75.6013 379.688 75.4975 379.528 75.4059C379.218 75.2003 378.866 75.0685 378.499 75.0205C378.132 74.9724 377.758 75.0093 377.407 75.1284C377.181 75.203 376.943 75.2342 376.705 75.2202C375.679 75.1958 374.643 75.2492 373.627 75.1282C372.015 74.9364 370.495 75.3871 368.953 75.6714C368.064 75.9231 367.122 75.9048 366.243 75.6187C365.868 75.4952 365.48 75.4167 365.087 75.3847C364.131 75.1666 363.149 75.0924 362.172 75.1647C361.962 75.166 361.754 75.1873 361.548 75.2281C360.399 75.6417 359.187 75.2647 358.012 75.5618C357.303 75.7412 356.743 76.3525 357.122 76.9914C357.473 77.5822 357.744 78.3121 358.58 78.4343C358.698 78.4517 358.802 78.5715 358.913 78.6422C359.598 79.0765 359.88 79.9673 360.694 80.2572C360.704 80.265 360.713 80.2754 360.718 80.2873C360.724 80.2993 360.726 80.3125 360.725 80.3256C360.523 80.8067 360.941 80.725 361.16 80.8092C361.503 80.941 361.859 81.0354 361.948 81.4807C362.07 82.103 362.272 82.7066 362.548 83.2762C362.705 83.6146 362.775 83.9874 362.752 84.3604C362.705 84.9711 362.609 85.5768 362.465 86.1719C362.284 87.0377 362.364 87.9387 362.696 88.7575C362.805 89.0309 362.993 89.2643 363.236 89.4265C363.479 89.5887 363.765 89.672 364.056 89.6651C364.639 89.6076 364.757 89.1355 364.938 88.6777C365.233 87.8786 365.303 87.0125 365.141 86.1753C365.01 85.3578 365.165 84.5197 365.579 83.8053C365.993 83.091 366.64 82.5452 367.409 82.2619C367.507 82.227 367.598 82.1739 367.677 82.1054C367.981 81.8451 368.373 81.7146 368.771 81.7414C369.552 81.6884 370.333 81.7874 371.119 81.6604C371.357 81.6146 371.603 81.648 371.82 81.7556C372.038 81.8633 372.215 82.0393 372.325 82.2574C372.484 82.7083 372.754 83.111 373.108 83.4278C373.16 83.4639 373.214 83.6003 373.194 83.6209C372.914 83.9188 373.245 84.3244 372.989 84.6488C372.929 84.7027 372.883 84.7706 372.855 84.8466C372.827 84.9225 372.817 85.0043 372.827 85.0848C372.837 85.1653 372.867 85.2422 372.912 85.3087C372.958 85.3752 373.02 85.4294 373.091 85.4666C373.164 85.5241 373.223 85.5993 373.26 85.6854C373.298 85.7716 373.313 85.8658 373.306 85.9596C373.389 87.0993 373.355 88.2446 373.203 89.3769C373.125 89.6911 373.172 90.0237 373.335 90.303C373.777 90.952 373.701 91.6364 373.658 92.3597C373.554 93.0135 373.329 93.6416 372.995 94.2107C372.466 95.4314 372.249 96.7667 372.361 98.0945C372.416 98.6507 372.377 99.2121 372.246 99.7551C372.16 99.9946 372.122 100.25 372.137 100.504C372.152 100.759 372.219 101.008 372.333 101.235C372.833 102.032 373.196 102.92 374 103.524C374.71 104.057 375.259 104.18 376.009 103.7C376.318 103.498 376.6 103.256 376.847 102.979C376.981 102.836 377.074 102.659 377.117 102.467C377.16 102.276 377.151 102.075 377.091 101.888C376.824 100.963 376.84 99.9768 377.136 99.0605C377.259 98.8368 377.307 98.5794 377.274 98.3259C377.242 98.0725 377.13 97.8362 376.955 97.6517C376.847 97.5321 376.77 97.3877 376.73 97.2309C376.69 97.0742 376.689 96.9099 376.727 96.7525C376.82 95.9328 376.747 95.1023 376.512 94.3122C376.2 93.091 376.321 91.7978 376.853 90.6574C376.949 90.4699 377.104 90.2703 377.038 90.0604C376.755 89.1619 377.033 88.2597 376.986 87.3633C376.905 86.2397 377.173 85.1186 377.75 84.1558C377.992 83.7711 378.144 83.3351 378.192 82.8816C378.301 81.6594 378.752 81.2208 380.108 80.7823C380.358 80.7013 380.549 80.7469 380.649 80.9476C380.864 81.2794 381.13 81.5751 381.436 81.824C381.324 82.0734 381.16 81.7343 381.088 81.9336C381.043 82.0587 381.193 82.1598 381.273 82.1358C381.439 82.0808 381.618 82.0897 381.778 82.1609C381.937 82.2321 382.065 82.3605 382.136 82.5213C382.423 83.1631 383.198 83.7285 382.584 84.58C382.551 84.6229 382.533 84.6761 382.534 84.7307C382.535 84.7853 382.555 84.8379 382.59 84.8796C382.752 85.0908 382.834 85.3539 382.82 85.621C382.845 85.7428 382.893 85.8585 382.962 85.9614C383.031 86.0643 383.119 86.1524 383.222 86.2206C383.756 85.9238 384.165 85.6194 384.255 85.0192C384.301 84.7319 384.287 84.4381 384.216 84.1562C384.021 83.3777 383.979 82.627 384.653 82.018C384.753 81.895 384.82 81.747 384.844 81.5893C384.884 81.4045 384.98 81.237 385.119 81.1105C385.258 80.9841 385.433 80.9049 385.619 80.8844C385.809 80.8545 385.99 80.7825 386.15 80.6736C386.31 80.5646 386.444 80.4214 386.543 80.254C386.361 79.9573 386.069 80.2809 385.839 80.1528C385.886 80.0321 385.968 79.9284 386.074 79.8551C386.179 79.7818 386.304 79.7421 386.432 79.7413C387.231 79.6442 387.72 79.0891 388.204 78.5197C388.321 78.3818 388.326 78.0013 388.594 78.172C388.808 78.3085 388.551 78.5561 388.479 78.7353C388.352 78.9701 388.17 79.1699 387.949 79.3174C387.697 79.5315 387.443 79.7439 387.149 79.9918C387.853 79.9347 388.542 79.7555 389.186 79.4619C389.699 78.8836 389.989 78.1366 390 77.3592C389.83 77.6432 389.8 78.0356 389.39 78.1297C389.285 77.8939 389.43 77.6966 389.501 77.5234C389.631 77.2869 389.68 77.0142 389.643 76.7467C389.605 76.4791 389.482 76.2312 389.293 76.0406Z" fill="white"/>
</svg>
