<svg width="535" height="253" viewBox="0 0 535 253" fill="none" xmlns="http://www.w3.org/2000/svg">
<rect width="535" height="253" fill="#DEB227"/>
<path d="M68.9395 117.997C68.9395 119.667 69.2324 120.81 69.8184 121.425C70.4336 122.011 71.7812 122.304 73.8613 122.304H75.9707C78.9883 122.304 81.4492 121.176 83.3535 118.92C85.2578 116.664 86.21 113.471 86.21 109.34L86.166 108.9C86.166 104.74 85.082 101.474 82.9141 99.1006C80.7461 96.7275 77.9922 95.541 74.6523 95.541H73.5537C71.0928 95.541 69.6426 96.1416 69.2031 97.3428C69.0566 97.7236 68.9834 99.9355 68.9834 103.979V110.658L68.9395 112.328V117.997ZM50.9658 148.803C50.9658 146.781 51.8301 145.185 53.5586 144.013C55.2871 142.812 56.2832 141.479 56.5469 140.014C56.957 137.699 57.1621 131.093 57.1621 120.194C57.1621 109.296 56.8984 102.763 56.3711 100.595C55.8438 98.3975 55.0967 96.8887 54.1299 96.0684C52.0205 94.3105 50.9658 93.168 50.9658 92.6406V91.9375C50.9658 90.7363 52.0645 89.9746 54.2617 89.6523C54.877 89.5645 57.9971 89.5205 63.6221 89.5205L69.4229 89.4326H70.5654L74.0371 89.5645H77.5527C87.9238 89.5645 94.8379 92.7725 98.2949 99.1885C99.6133 101.649 100.272 104.257 100.272 107.011V108.241C100.272 113.163 98.4707 117.323 94.8672 120.722C91.2637 124.091 86.1807 126.068 79.6182 126.654C75.751 127.006 73.5684 127.299 73.0703 127.533C71.1074 128.412 70.126 131.679 70.126 137.333C70.126 139.94 71.0342 141.977 72.8506 143.441C75.2822 145.404 76.498 147.06 76.498 148.407C76.498 149.462 75.3701 150.194 73.1143 150.604C70.8877 151.015 67.6504 151.22 63.4023 151.22C55.1113 151.22 50.9658 150.414 50.9658 148.803ZM126.42 113.339H125.585C123.065 113.339 121 114.76 119.389 117.602C117.807 120.443 117.016 123.842 117.016 127.797V130.258C117.016 134.711 117.938 138.476 119.784 141.552C121.63 144.628 123.842 146.166 126.42 146.166H127.255C129.511 146.166 131.474 145.023 133.144 142.738C134.843 140.424 135.692 137.348 135.692 133.51L135.78 132.587L135.824 130.741V130.258L135.78 129.774V128.852C135.722 128.207 135.692 127.738 135.692 127.445C135.692 123.549 134.77 120.224 132.924 117.47C131.078 114.716 128.91 113.339 126.42 113.339ZM126.464 107.494H128.661C131.269 107.494 133.949 108.109 136.703 109.34C141.947 111.684 145.551 115.492 147.514 120.766C148.51 123.49 149.008 126.273 149.008 129.115V129.906C149.008 132.953 148.393 135.941 147.162 138.871C145.932 141.801 144.276 144.232 142.196 146.166C137.86 150.092 132.88 152.055 127.255 152.055C126.815 152.055 126.376 152.04 125.937 152.011C123.124 152.011 120.355 151.454 117.631 150.341C114.936 149.198 112.724 147.689 110.995 145.814C107.274 141.713 105.414 136.571 105.414 130.39V129.643L105.458 128.896C105.487 126.171 106 123.476 106.996 120.81C108.93 115.712 112.475 111.947 117.631 109.516C120.531 108.168 123.476 107.494 126.464 107.494ZM155.204 90.0479C155.204 88.9932 155.966 88.2314 157.489 87.7627C161.62 86.5029 165.575 85.873 169.354 85.873C171.581 85.873 172.812 86.8398 173.046 88.7734C173.104 89.2422 173.134 97.0938 173.134 112.328C173.134 127.562 173.383 136.571 173.881 139.354C174.408 142.108 175.111 143.983 175.99 144.979C178.217 147.499 179.33 148.817 179.33 148.935C179.33 150.341 175.404 151.044 167.553 151.044H166.674L165.751 151C161.063 151 158.251 150.883 157.313 150.648C156.405 150.414 155.951 149.872 155.951 149.022C155.951 148.144 156.669 146.825 158.104 145.067C159.54 143.28 160.448 141.405 160.829 139.442C161.21 137.45 161.4 130.126 161.4 117.47C161.4 104.813 161.195 97.7969 160.785 96.4199C160.375 95.0137 159.335 93.7832 157.665 92.7285C156.024 91.6445 155.204 90.751 155.204 90.0479ZM185.175 90.0479C185.175 88.9932 185.937 88.2314 187.46 87.7627C191.591 86.5029 195.546 85.873 199.325 85.873C201.552 85.873 202.782 86.8398 203.017 88.7734C203.075 89.2422 203.104 97.0938 203.104 112.328C203.104 127.562 203.354 136.571 203.852 139.354C204.379 142.108 205.082 143.983 205.961 144.979C208.188 147.499 209.301 148.817 209.301 148.935C209.301 150.341 205.375 151.044 197.523 151.044H196.645L195.722 151C191.034 151 188.222 150.883 187.284 150.648C186.376 150.414 185.922 149.872 185.922 149.022C185.922 148.144 186.64 146.825 188.075 145.067C189.511 143.28 190.419 141.405 190.8 139.442C191.181 137.45 191.371 130.126 191.371 117.47C191.371 104.813 191.166 97.7969 190.756 96.4199C190.346 95.0137 189.306 93.7832 187.636 92.7285C185.995 91.6445 185.175 90.751 185.175 90.0479ZM220.595 94.0029C220.595 92.3037 221.254 90.8682 222.572 89.6963C223.92 88.5244 225.37 87.9385 226.923 87.9385H228.329C228.769 88.0264 229.135 88.0703 229.428 88.0703C230.834 88.0703 232.079 88.7002 233.163 89.96C234.247 91.2197 234.789 92.4209 234.789 93.5635V94.7061C234.73 94.999 234.701 95.2188 234.701 95.3652C234.701 96.5957 234.013 97.7969 232.636 98.9688C231.259 100.141 229.735 100.727 228.065 100.727H226.703C225.062 100.727 223.642 100.214 222.44 99.1885C221.269 98.1338 220.683 96.9326 220.683 95.585L220.595 95.1455V94.0029ZM228.944 151.176H224.77C220.873 151.176 218.529 151.073 217.738 150.868C216.977 150.634 216.596 150.004 216.596 148.979C216.596 147.924 217.328 146.664 218.793 145.199C220.258 143.734 221.181 142.27 221.562 140.805C221.942 139.311 222.133 135.458 222.133 129.247C222.133 123.007 221.972 119.33 221.649 118.217C221.327 117.104 220.316 116.151 218.617 115.36C216.947 114.54 216.112 113.573 216.112 112.46C216.112 111.317 216.889 110.482 218.441 109.955C221.957 108.783 225.839 108.197 230.087 108.197H230.746C232.445 108.197 233.427 108.915 233.69 110.351C233.837 111.171 233.91 116.093 233.91 125.116C233.91 134.11 234.101 139.384 234.481 140.937C234.892 142.46 235.917 144.086 237.558 145.814C239.198 147.543 240.019 148.627 240.019 149.066V149.594C240.019 150.648 236.327 151.176 228.944 151.176ZM296.972 147.924C296.972 149.008 296.078 149.813 294.291 150.341C292.533 150.839 289.56 151.088 285.37 151.088C281.21 151.088 278.72 150.795 277.899 150.209C277.079 149.623 276.669 148.935 276.669 148.144C276.669 147.323 277.035 146.093 277.768 144.452C278.529 142.812 278.998 141.493 279.174 140.497C279.35 139.501 279.438 136.132 279.438 130.39C279.438 124.647 278.939 120.736 277.943 118.656C276.977 116.547 275.058 115.492 272.187 115.492C269.315 115.492 266.986 116.737 265.199 119.228C263.998 120.897 263.397 123.959 263.397 128.412C263.397 135.766 264.071 141.156 265.419 144.584C266.239 146.576 266.649 147.865 266.649 148.451C266.649 149.564 265.976 150.268 264.628 150.561C263.28 150.824 260.351 150.956 255.839 150.956C251.356 150.956 248.646 150.663 247.709 150.077C246.771 149.462 246.303 148.642 246.303 147.616C246.303 146.591 247.079 145.565 248.632 144.54C250.185 143.515 251.063 142.592 251.269 141.771C251.474 140.922 251.576 137.201 251.576 130.609C251.576 123.988 251.356 120.121 250.917 119.008C250.478 117.865 249.599 116.547 248.28 115.053C246.962 113.559 246.303 112.797 246.303 112.768V111.845C246.303 111.347 246.669 110.893 247.401 110.482C249.95 109.018 253.744 108.285 258.783 108.285C260.189 108.285 261.361 108.974 262.299 110.351C263.266 111.728 263.969 112.416 264.408 112.416C264.848 112.416 265.873 111.947 267.484 111.01C269.125 110.043 270.019 109.53 270.165 109.472C272.509 108.388 274.691 107.846 276.713 107.846H278.119C283.246 107.846 286.908 109.896 289.105 113.998C290.512 116.664 291.215 123.065 291.215 133.202C291.215 138.622 291.391 141.713 291.742 142.475C292.094 143.236 293.046 144.115 294.599 145.111C296.181 146.078 296.972 147.016 296.972 147.924ZM327.47 133.026C327.47 131.708 327.06 131.049 326.239 131.049H325.097C324.364 131.195 323.808 131.269 323.427 131.269C320.761 131.269 318.52 132.045 316.703 133.598C314.887 135.15 313.979 136.908 313.979 138.871V139.882C313.979 141.376 314.447 142.665 315.385 143.749C316.322 144.833 317.465 145.375 318.812 145.375H320.219C322.152 145.375 323.808 144.774 325.185 143.573C326.562 142.372 327.25 141.2 327.25 140.058C327.367 139.472 327.426 139.091 327.426 138.915L327.514 138.212V136.322L327.558 135.619V133.686C327.499 133.393 327.47 133.173 327.47 133.026ZM345.312 146.957V147.616C345.312 148.612 344.213 149.55 342.016 150.429C339.818 151.278 337.211 151.703 334.193 151.703C332.348 151.703 330.751 150.868 329.403 149.198C328.671 148.261 328.1 147.792 327.689 147.792C327.279 147.763 326.576 148.1 325.58 148.803C322.24 151.088 318.637 152.23 314.77 152.23C314.74 152.23 314.711 152.245 314.682 152.274C310.873 152.274 307.826 151.293 305.541 149.33C303.256 147.367 302.099 144.613 302.069 141.068C302.069 133.451 307.929 128.661 319.647 126.698C322.46 126.259 324.145 125.922 324.701 125.688C326.4 124.984 327.25 123.417 327.25 120.985C327.25 118.554 326.693 116.811 325.58 115.756C324.496 114.672 323.222 114.13 321.757 114.13C319.442 114.13 317.348 115.375 315.473 117.865C313.598 120.326 311.415 121.557 308.925 121.557C307.46 121.557 306.347 121.161 305.585 120.37C304.853 119.55 304.486 118.715 304.486 117.865C304.486 115.287 305.834 113.236 308.529 111.713C313.012 109.193 317.758 107.934 322.768 107.934H325.053C327.572 107.934 329.975 108.476 332.26 109.56C334.574 110.614 336.361 112.24 337.621 114.438C338.881 116.635 339.511 121.542 339.511 129.159C339.511 136.776 339.745 141.171 340.214 142.343C340.712 143.485 341.679 144.335 343.114 144.892C344.579 145.419 345.312 146.107 345.312 146.957ZM352.387 114.525C351.098 113.646 350.453 112.797 350.453 111.977C350.453 111.127 351.229 110.292 352.782 109.472C354.335 108.651 355.302 107.992 355.683 107.494C356.063 106.996 356.664 105.619 357.484 103.363C358.334 101.107 359.228 99.3789 360.165 98.1777C361.103 96.9473 362.333 96.332 363.856 96.332C365.38 96.332 366.479 96.9473 367.152 98.1777C367.445 98.7344 367.826 100.053 368.295 102.133C368.793 104.213 369.379 105.546 370.053 106.132C370.727 106.718 372.016 107.377 373.92 108.109C375.824 108.812 376.806 109.179 376.864 109.208C377.86 109.999 378.358 110.937 378.358 112.021C378.358 112.958 376.967 113.793 374.184 114.525C371.43 115.258 369.657 116.371 368.866 117.865C368.104 119.359 367.724 123.095 367.724 129.071C367.724 135.048 368.178 138.93 369.086 140.717C370.023 142.504 371.547 143.397 373.656 143.397L375.238 143.266C375.941 143.207 376.703 143.178 377.523 143.178C379.311 143.178 380.204 143.852 380.204 145.199C380.204 146.928 379.12 148.305 376.952 149.33C373.847 150.795 370.565 151.527 367.108 151.527C365.497 151.527 363.886 151.088 362.274 150.209C360.663 149.33 359.433 148.261 358.583 147.001C356.913 144.54 356.078 141.024 356.078 136.454L356.034 135.531C356.005 134.887 355.99 134.169 355.99 133.378V130.785C355.99 125.717 355.58 121.396 354.76 117.821C354.467 116.503 353.676 115.404 352.387 114.525Z" fill="white"/>
<path d="M453.302 112.636C456.7 110.292 459.601 109.12 462.003 109.12C464.405 109.12 466.031 109.633 466.881 110.658C467.76 111.684 468.199 112.914 468.199 114.35C468.199 115.785 467.804 117.074 467.013 118.217C466.251 119.33 465.372 119.887 464.376 119.887C463.409 119.887 462.062 119.506 460.333 118.744C458.604 117.982 457.271 117.602 456.334 117.602C455.396 117.602 454.342 118.1 453.17 119.096C451.998 120.092 451.178 121.513 450.709 123.358C450.27 125.204 450.05 128.104 450.05 132.06C450.05 135.985 450.328 138.534 450.885 139.706C451.441 140.849 452.584 142.357 454.312 144.232C456.041 146.107 456.905 147.646 456.905 148.847C456.905 150.253 453.507 150.956 446.71 150.956H442.931L442.008 150.912C441.393 150.883 440.763 150.868 440.118 150.868L439.195 150.824C438.58 150.795 437.936 150.78 437.262 150.78C434.186 150.78 432.647 150.121 432.647 148.803C432.647 147.484 433.409 146.151 434.933 144.804C436.485 143.456 437.423 142.24 437.745 141.156C438.097 140.072 438.272 136.352 438.272 129.994C438.272 123.637 438.067 119.828 437.657 118.568C437.276 117.309 436.324 116.239 434.801 115.36C433.307 114.452 432.56 113.515 432.56 112.548C432.56 111.2 433.57 110.248 435.592 109.691C438.639 108.871 441.393 108.461 443.854 108.461C446.314 108.461 447.97 108.739 448.819 109.296C449.171 109.53 449.566 110.277 450.006 111.537C450.475 112.797 451.017 113.427 451.632 113.427C451.896 113.427 452.452 113.163 453.302 112.636Z" fill="white"/>
<path d="M394.283 130.669C394.283 130.083 394.649 129.219 395.382 128.076C396.114 126.934 396.48 126.128 396.48 125.659C396.48 125.571 396.026 125.278 395.118 124.78C394.239 124.253 393.287 123.374 392.262 122.144C391.236 120.884 390.724 119.858 390.724 119.067C390.724 118.276 391.207 117.471 392.174 116.65C393.17 115.801 394.107 115.376 394.986 115.376C395.895 115.376 397.755 116.284 400.567 118.101C401.388 118.628 402.003 118.892 402.413 118.892C402.882 118.892 403.116 118.584 403.116 117.969L403.028 117.134L402.765 115.288C402.56 113.53 402.457 112.051 402.457 110.85C402.457 109.619 402.75 108.667 403.336 107.993C403.922 107.319 405.021 106.982 406.632 106.982C408.243 106.982 409.342 107.305 409.928 107.949C410.543 108.564 410.851 109.985 410.851 112.212C410.851 112.534 410.675 113.896 410.323 116.299C410.118 117.793 410.016 118.833 410.016 119.419C410.016 119.771 410.06 119.946 410.147 119.946C410.528 119.946 411.905 119.126 414.278 117.485C416.681 115.815 418.321 114.98 419.2 114.98C420.079 114.98 421.002 115.42 421.969 116.299C422.936 117.178 423.419 118.262 423.419 119.551C423.419 121.191 421.5 122.891 417.662 124.648C416.08 125.352 415.289 125.791 415.289 125.967C415.289 126.992 415.816 127.886 416.871 128.647C418.834 130.083 419.815 131.753 419.815 133.657C419.815 135.532 419.303 136.47 418.277 136.47C416.549 136.47 415.011 136.25 413.663 135.811C412.345 135.371 411.51 135.151 411.158 135.151C410.953 135.151 410.382 135.796 409.444 137.085C408.507 138.374 406.734 139.019 404.127 139.019H403.644C403.351 139.019 402.926 138.594 402.369 137.744C401.168 135.957 400.084 135.063 399.117 135.063L396.129 135.283C394.898 135.283 394.283 133.745 394.283 130.669Z" fill="white"/>
<path d="M422.293 152.041C421.867 151.71 421.309 151.307 420.635 151.67C420.461 151.772 420.262 151.823 420.062 151.818C419.861 151.813 419.665 151.751 419.497 151.641C419.02 151.347 418.453 151.24 417.904 151.34C417.696 151.38 417.483 151.376 417.277 151.328C416.817 151.198 416.328 151.224 415.885 151.402C415.475 151.503 415.073 151.629 414.679 151.78C414.411 151.893 414.122 151.943 413.833 151.925C413.543 151.908 413.262 151.825 413.009 151.681C412.843 151.601 412.688 151.498 412.528 151.406C412.218 151.2 411.866 151.069 411.499 151.02C411.132 150.972 410.758 151.009 410.407 151.128C410.181 151.203 409.943 151.234 409.705 151.22C408.679 151.196 407.643 151.249 406.627 151.128C405.015 150.936 403.495 151.387 401.953 151.671C401.064 151.923 400.122 151.905 399.243 151.619C398.868 151.495 398.48 151.417 398.087 151.385C397.131 151.167 396.149 151.092 395.172 151.165C394.962 151.166 394.754 151.187 394.548 151.228C393.399 151.642 392.187 151.265 391.012 151.562C390.303 151.741 389.743 152.353 390.122 152.991C390.473 153.582 390.744 154.312 391.58 154.434C391.698 154.452 391.802 154.571 391.913 154.642C392.598 155.076 392.88 155.967 393.694 156.257C393.704 156.265 393.713 156.275 393.718 156.287C393.724 156.299 393.726 156.312 393.725 156.326C393.523 156.807 393.941 156.725 394.16 156.809C394.503 156.941 394.859 157.035 394.948 157.481C395.07 158.103 395.272 158.707 395.548 159.276C395.705 159.615 395.775 159.987 395.752 160.36C395.705 160.971 395.609 161.577 395.465 162.172C395.284 163.038 395.364 163.939 395.696 164.757C395.805 165.031 395.993 165.264 396.236 165.427C396.479 165.589 396.765 165.672 397.056 165.665C397.639 165.608 397.757 165.136 397.938 164.678C398.233 163.879 398.303 163.012 398.141 162.175C398.01 161.358 398.165 160.52 398.579 159.805C398.993 159.091 399.64 158.545 400.409 158.262C400.507 158.227 400.598 158.174 400.677 158.105C400.981 157.845 401.373 157.715 401.771 157.741C402.552 157.688 403.333 157.787 404.119 157.66C404.357 157.615 404.603 157.648 404.82 157.756C405.038 157.863 405.215 158.039 405.325 158.257C405.484 158.708 405.754 159.111 406.108 159.428C406.16 159.464 406.214 159.6 406.194 159.621C405.914 159.919 406.245 160.324 405.989 160.649C405.929 160.703 405.883 160.771 405.855 160.847C405.827 160.923 405.817 161.004 405.827 161.085C405.837 161.165 405.867 161.242 405.912 161.309C405.958 161.375 406.02 161.429 406.091 161.467C406.164 161.524 406.223 161.599 406.26 161.685C406.298 161.772 406.313 161.866 406.306 161.96C406.389 163.099 406.355 164.245 406.203 165.377C406.125 165.691 406.172 166.024 406.335 166.303C406.777 166.952 406.701 167.636 406.658 168.36C406.554 169.014 406.329 169.642 405.995 170.211C405.466 171.431 405.249 172.767 405.361 174.095C405.416 174.651 405.377 175.212 405.246 175.755C405.16 175.995 405.122 176.25 405.137 176.504C405.152 176.759 405.219 177.008 405.333 177.235C405.833 178.032 406.196 178.92 407 179.524C407.71 180.057 408.259 180.18 409.009 179.7C409.318 179.498 409.6 179.256 409.847 178.979C409.981 178.836 410.074 178.659 410.117 178.467C410.16 178.276 410.151 178.075 410.091 177.888C409.824 176.963 409.84 175.977 410.136 175.06C410.259 174.837 410.307 174.579 410.274 174.326C410.242 174.072 410.13 173.836 409.955 173.652C409.847 173.532 409.77 173.388 409.73 173.231C409.69 173.074 409.689 172.91 409.727 172.753C409.82 171.933 409.747 171.102 409.512 170.312C409.2 169.091 409.321 167.798 409.853 166.657C409.949 166.47 410.104 166.27 410.038 166.06C409.755 165.162 410.033 164.26 409.986 163.363C409.905 162.24 410.173 161.119 410.75 160.156C410.992 159.771 411.144 159.335 411.192 158.882C411.301 157.659 411.752 157.221 413.108 156.782C413.358 156.701 413.549 156.747 413.649 156.948C413.864 157.279 414.13 157.575 414.436 157.824C414.324 158.073 414.16 157.734 414.088 157.934C414.043 158.059 414.193 158.16 414.273 158.136C414.439 158.081 414.618 158.09 414.778 158.161C414.937 158.232 415.065 158.36 415.136 158.521C415.423 159.163 416.198 159.729 415.584 160.58C415.551 160.623 415.534 160.676 415.534 160.731C415.535 160.785 415.555 160.838 415.59 160.88C415.752 161.091 415.834 161.354 415.82 161.621C415.845 161.743 415.893 161.858 415.962 161.961C416.031 162.064 416.119 162.152 416.222 162.221C416.756 161.924 417.165 161.619 417.255 161.019C417.301 160.732 417.287 160.438 417.216 160.156C417.021 159.378 416.979 158.627 417.653 158.018C417.753 157.895 417.82 157.747 417.844 157.589C417.884 157.405 417.98 157.237 418.119 157.111C418.258 156.984 418.433 156.905 418.619 156.884C418.809 156.854 418.99 156.783 419.15 156.674C419.31 156.565 419.444 156.421 419.543 156.254C419.361 155.957 419.069 156.281 418.839 156.153C418.886 156.032 418.968 155.928 419.074 155.855C419.179 155.782 419.304 155.742 419.432 155.741C420.231 155.644 420.72 155.089 421.204 154.52C421.321 154.382 421.326 154.001 421.594 154.172C421.808 154.309 421.551 154.556 421.479 154.735C421.352 154.97 421.17 155.17 420.949 155.317C420.697 155.531 420.443 155.744 420.149 155.992C420.853 155.935 421.542 155.755 422.186 155.462C422.699 154.884 422.989 154.137 423 153.359C422.83 153.643 422.8 154.036 422.39 154.13C422.285 153.894 422.43 153.697 422.501 153.523C422.631 153.287 422.68 153.014 422.643 152.747C422.605 152.479 422.482 152.231 422.293 152.041Z" fill="white"/>
</svg>
