<svg width="40" height="40" viewBox="0 0 40 40" fill="none" xmlns="http://www.w3.org/2000/svg">
<path d="M28.3332 20C28.3332 24.6023 24.6022 28.3333 19.9998 28.3333C15.3975 28.3333 11.6665 24.6023 11.6665 20C11.6665 15.3976 15.3975 11.6667 19.9998 11.6667C24.6022 11.6667 28.3332 15.3976 28.3332 20Z" fill="#FFFA79" stroke="#C5C15E" stroke-width="2"/>
<path d="M20.0002 3.33334C19.3713 3.88889 18.491 5.33334 20.0002 6.66667M20.0002 33.3333C20.629 33.8888 21.5093 35.3333 20.0002 36.6667M32.5002 7.50452C31.6143 7.4497 29.8757 7.87155 30.0072 9.99745M9.15976 29.1667C9.21458 30.0525 8.79275 31.7912 6.66683 31.6597M8.33801 7.5C8.28315 8.3867 8.70541 10.1272 10.8335 9.99549M30.0002 29.171C30.886 29.1192 32.6247 29.518 32.4932 31.528M36.6668 20C36.1113 19.3712 34.6668 18.4908 33.3335 20M6.66683 19.1667C6.11128 19.7955 4.66683 20.6758 3.3335 19.1667" stroke="#C5C15E" stroke-width="2" stroke-linecap="round"/>
</svg>
