<svg width="36" height="36" viewBox="0 0 36 36" fill="none" xmlns="http://www.w3.org/2000/svg">
<path d="M36 18C36 8.05887 27.941 0 18 0C8.05887 0 0 8.05887 0 18C0 27.941 8.05887 36 18 36C27.941 36 36 27.941 36 18Z" fill="#D9D9D9" fill-opacity="0.7"/>
<path d="M18 14V22M22 18H14" stroke="#B89006" stroke-opacity="0.9" stroke-width="1.5" stroke-linecap="round" stroke-linejoin="round"/>
<path d="M28 18C28 12.4771 23.5228 8 18 8C12.4771 8 8 12.4771 8 18C8 23.5228 12.4771 28 18 28C23.5228 28 28 23.5228 28 18Z" stroke="#B89006" stroke-opacity="0.9" stroke-width="1.5"/>
</svg>
