 <svg version="1.0" xmlns="http://www.w3.org/2000/svg"  width="300.000000pt" height="169.000000pt" viewBox="0 0 300.000000 169.000000"  preserveAspectRatio="xMidYMid meet">  <g transform="translate(0.000000,169.000000) scale(0.100000,-0.100000)" fill="#000000" stroke="none"> <path d="M1867 1463 c-20 -19 -4 -44 42 -67 58 -30 105 -75 131 -127 30 -58 26 -80 -20 -109 -59 -36 -91 -87 -97 -157 l-5 -59 -58 -22 c-78 -31 -189 -110 -224 -161 -90 -129 0 -277 177 -290 l70 -6 15 -45 c21 -63 102 -140 172 -166 42 -14 61 -28 79 -57 30 -46 47 -47 65 -2 8 19 23 38 33 41 10 3 46 19 80 35 71 34 116 82 141 151 l16 47 56 0 c75 -1 132 24 180 78 74 85 65 162 -31 256 -43 42 -86 71 -150 102 l-91 43 -2 48 c-4 76 -40 129 -126 185 -24 16 -24 16 -7 60 25 65 68 111 136 148 62 33 80 64 46 78 -25 9 -100 -25 -149 -68 -41 -37 -106 -143 -106 -176 0 -9 -16 -13 -54 -13 l-54 0 -18 50 c-27 75 -80 139 -149 177 -59 32 -85 39 -98 26z m213 -578 c19 -23 7 -125 -21 -181 -32 -63 -116 -138 -179 -159 -74 -25 -124 -13 -177 40 -62 62 -55 104 30 182 103 95 309 164 347 118z m329 0 c35 -9 91 -30 125 -48 71 -38 161 -124 168 -161 11 -55 -55 -128 -127 -142 -86 -16 -214 62 -263 158 -24 49 -44 139 -37 163 3 8 7 22 10 30 6 19 42 19 124 0z m-177 -173 c10 -27 29 -65 43 -86 14 -20 25 -39 25 -41 0 -9 -135 -17 -184 -11 l-54 7 34 57 c19 31 37 68 41 82 9 38 12 40 46 40 30 0 34 -4 49 -48z m159 -300 c-19 -36 -91 -89 -137 -102 -64 -18 -147 -7 -202 27 -43 26 -91 78 -81 87 2 2 36 -3 74 -11 80 -17 219 -12 300 10 28 8 51 13 53 11 2 -1 -1 -11 -7 -22z"/> <path d="M474 1440 c-12 -5 -31 -21 -43 -37 -59 -74 43 -170 124 -117 23 15 26 14 58 -10 18 -14 40 -37 47 -51 13 -24 11 -27 -29 -61 -52 -45 -79 -96 -87 -167 l-6 -53 -62 -13 c-137 -28 -233 -104 -256 -202 -47 -195 165 -390 344 -315 21 9 41 16 45 16 4 0 17 -20 28 -44 25 -51 120 -157 169 -186 l34 -22 34 21 c50 31 148 140 170 189 21 46 28 49 66 27 40 -23 137 -19 195 9 158 73 210 290 97 409 -38 41 -130 85 -205 99 l-65 12 -5 56 c-7 80 -40 136 -106 182 l-23 17 21 30 c12 17 35 40 51 51 28 20 32 20 52 6 59 -42 138 -1 138 72 0 51 -34 84 -86 84 -29 0 -44 -6 -61 -27 -13 -14 -23 -32 -23 -40 0 -7 -22 -30 -49 -50 -28 -20 -59 -50 -70 -68 l-20 -32 -110 1 -111 1 -44 49 c-24 27 -55 55 -69 63 -14 8 -27 25 -31 42 -8 43 -70 76 -112 59z m440 -264 c68 -21 122 -60 146 -106 29 -56 25 -59 -15 -13 -52 61 -112 87 -204 87 -96 0 -166 -29 -217 -88 -30 -35 -33 -37 -24 -14 24 67 70 108 153 134 56 17 104 17 161 0z m-136 -282 l30 -6 -20 -72 c-26 -94 -88 -221 -132 -273 -72 -84 -148 -112 -234 -87 -136 39 -205 209 -130 321 31 47 107 90 191 108 65 14 242 19 295 9z m467 -23 c114 -41 170 -108 169 -201 -2 -108 -82 -202 -191 -223 -86 -17 -189 54 -257 176 -31 55 -96 228 -96 255 0 17 37 21 180 18 108 -3 147 -7 195 -25z m-390 -113 c6 -25 4 -28 -18 -28 -24 0 -25 1 -14 35 11 38 22 36 32 -7z m68 -157 c10 -18 16 -36 13 -38 -11 -12 -101 -22 -140 -17 -69 10 -69 10 -45 51 22 38 22 38 88 38 66 0 67 0 84 -34z m90 -119 c15 -16 15 -20 1 -40 -59 -85 -295 -88 -350 -5 -14 23 -14 27 -1 41 14 14 21 13 72 -3 67 -21 174 -17 220 8 38 21 39 21 58 -1z"/> </g> </svg> 