<svg width="300" height="300" viewBox="0 0 300 300" fill="none" xmlns="http://www.w3.org/2000/svg">
<rect width="300" height="300" fill="#EDEDED"/>
<path d="M160 134C160 134 150 141.273 150 154" stroke="#395C0A" stroke-width="3" stroke-linecap="round" stroke-linejoin="round"/>
<path d="M143.386 125.52C148.205 120.88 148.205 113.356 143.386 108.716C136.115 101.714 120.119 103.114 120.119 103.114C120.119 103.114 118.664 118.518 125.936 125.52C130.754 130.16 138.567 130.16 143.386 125.52Z" stroke="#395C0A" stroke-width="3" stroke-linecap="round" stroke-linejoin="round"/>
<path d="M161.079 133.055C165.184 136.982 171.839 136.982 175.944 133.055C182.138 127.131 180.899 114.097 180.899 114.097C180.899 114.097 167.272 112.912 161.079 118.836C156.974 122.763 156.974 129.129 161.079 133.055Z" stroke="#395C0A" stroke-width="3" stroke-linecap="round" stroke-linejoin="round"/>
<path d="M143 127C143 127 150 136.001 150 154" stroke="#395C0A" stroke-width="3" stroke-linecap="round" stroke-linejoin="round"/>
<path d="M185 169C176.571 159.802 164.239 154 150.5 154C136.761 154 124.429 159.802 116 169" stroke="#395C0A" stroke-width="3" stroke-linecap="round" stroke-linejoin="round"/>
</svg>
