<svg width="700" height="204" viewBox="0 0 700 204" fill="none" xmlns="http://www.w3.org/2000/svg">
    <rect y="4" width="700" height="200" fill="#6A8E39"/>
    <g clip-path="url(#clip0_206_80)">
        <path d="M63.0371 61.3739C68.5981 59.0149 71.1191 52.4188 68.668 46.6412C66.2169 40.8636 57.0379 39.2312 55.1478 30.7751C44.9719 38.7953 46.3112 49.9538 48.5302 55.1844C50.9813 60.962 57.4763 63.7332 63.0371 61.3739Z" stroke="white" stroke-width="3" stroke-linejoin="round"/>
        <path d="M81.1944 80.6893C68.6798 71.0423 61.3998 60.3422 57.391 51.131" stroke="white" stroke-width="3" stroke-linecap="round" stroke-linejoin="round"/>
        <path d="M84.3378 70.4597C91.2552 75.0976 99.966 72.4489 103.794 64.5434C107.622 56.6378 101.778 44.2306 108.766 34.6946C92.3724 29.3914 82.2094 40.5905 78.744 47.7475C74.916 55.6531 77.4205 65.8216 84.3378 70.4597Z" stroke="white" stroke-width="3" stroke-linejoin="round"/>
        <path d="M81.6128 87.6643C81.6485 72.865 85.5944 61.6581 90.7634 53.5137" stroke="white" stroke-width="3" stroke-linecap="round" stroke-linejoin="round"/>
    </g>
    <g clip-path="url(#clip1_206_80)">
        <path d="M63.0371 156.374C68.5981 154.015 71.1191 147.419 68.668 141.641C66.2169 135.864 57.0379 134.231 55.1478 125.775C44.9719 133.795 46.3112 144.954 48.5302 150.184C50.9813 155.962 57.4763 158.733 63.0371 156.374Z" stroke="white" stroke-width="3" stroke-linejoin="round"/>
        <path d="M81.1944 175.689C68.6798 166.042 61.3998 155.342 57.391 146.131" stroke="white" stroke-width="3" stroke-linecap="round" stroke-linejoin="round"/>
        <path d="M84.3378 165.46C91.2552 170.098 99.966 167.449 103.794 159.543C107.622 151.638 101.778 139.231 108.766 129.695C92.3724 124.391 82.2094 135.59 78.744 142.747C74.916 150.653 77.4205 160.822 84.3378 165.46Z" stroke="white" stroke-width="3" stroke-linejoin="round"/>
        <path d="M81.6128 182.664C81.6485 167.865 85.5944 156.658 90.7634 148.514" stroke="white" stroke-width="3" stroke-linecap="round" stroke-linejoin="round"/>
    </g>
    <g clip-path="url(#clip2_206_80)">
        <path d="M165.037 61.3739C170.598 59.0149 173.119 52.4188 170.668 46.6412C168.217 40.8636 159.038 39.2312 157.148 30.7751C146.972 38.7953 148.311 49.9538 150.53 55.1844C152.981 60.962 159.476 63.7332 165.037 61.3739Z" stroke="white" stroke-width="3" stroke-linejoin="round"/>
        <path d="M183.194 80.6893C170.68 71.0423 163.4 60.3422 159.391 51.131" stroke="white" stroke-width="3" stroke-linecap="round" stroke-linejoin="round"/>
        <path d="M186.338 70.4597C193.255 75.0976 201.966 72.4489 205.794 64.5434C209.622 56.6378 203.778 44.2306 210.766 34.6946C194.372 29.3914 184.209 40.5905 180.744 47.7475C176.916 55.6531 179.42 65.8216 186.338 70.4597Z" stroke="white" stroke-width="3" stroke-linejoin="round"/>
        <path d="M183.613 87.6643C183.648 72.865 187.594 61.6581 192.763 53.5137" stroke="white" stroke-width="3" stroke-linecap="round" stroke-linejoin="round"/>
    </g>
    <g clip-path="url(#clip3_206_80)">
        <path d="M165.037 156.374C170.598 154.015 173.119 147.419 170.668 141.641C168.217 135.864 159.038 134.231 157.148 125.775C146.972 133.795 148.311 144.954 150.53 150.184C152.981 155.962 159.476 158.733 165.037 156.374Z" stroke="white" stroke-width="3" stroke-linejoin="round"/>
        <path d="M183.194 175.689C170.68 166.042 163.4 155.342 159.391 146.131" stroke="white" stroke-width="3" stroke-linecap="round" stroke-linejoin="round"/>
        <path d="M186.338 165.46C193.255 170.098 201.966 167.449 205.794 159.543C209.622 151.638 203.778 139.231 210.766 129.695C194.372 124.391 184.209 135.59 180.744 142.747C176.916 150.653 179.42 160.822 186.338 165.46Z" stroke="white" stroke-width="3" stroke-linejoin="round"/>
        <path d="M183.613 182.664C183.648 167.865 187.594 156.658 192.763 148.514" stroke="white" stroke-width="3" stroke-linecap="round" stroke-linejoin="round"/>
    </g>
    <g clip-path="url(#clip4_206_80)">
        <path d="M279.489 61.3739C285.05 59.0149 287.571 52.4188 285.12 46.6412C282.669 40.8636 273.49 39.2312 271.6 30.7751C261.424 38.7953 262.763 49.9538 264.982 55.1844C267.433 60.962 273.928 63.7332 279.489 61.3739Z" stroke="white" stroke-width="3" stroke-linejoin="round"/>
        <path d="M297.647 80.6893C285.132 71.0423 277.852 60.3422 273.843 51.131" stroke="white" stroke-width="3" stroke-linecap="round" stroke-linejoin="round"/>
        <path d="M300.79 70.4597C307.707 75.0976 316.418 72.4489 320.246 64.5434C324.074 56.6378 318.231 44.2306 325.218 34.6946C308.825 29.3914 298.662 40.5905 295.196 47.7475C291.368 55.6531 293.873 65.8216 300.79 70.4597Z" stroke="white" stroke-width="3" stroke-linejoin="round"/>
        <path d="M298.065 87.6643C298.101 72.865 302.047 61.6581 307.216 53.5137" stroke="white" stroke-width="3" stroke-linecap="round" stroke-linejoin="round"/>
    </g>
    <g clip-path="url(#clip5_206_80)">
        <path d="M279.489 156.374C285.05 154.015 287.571 147.419 285.12 141.641C282.669 135.864 273.49 134.231 271.6 125.775C261.424 133.795 262.763 144.954 264.982 150.184C267.433 155.962 273.928 158.733 279.489 156.374Z" stroke="white" stroke-width="3" stroke-linejoin="round"/>
        <path d="M297.647 175.689C285.132 166.042 277.852 155.342 273.843 146.131" stroke="white" stroke-width="3" stroke-linecap="round" stroke-linejoin="round"/>
        <path d="M300.79 165.46C307.707 170.098 316.418 167.449 320.246 159.543C324.074 151.638 318.231 139.231 325.218 129.695C308.825 124.391 298.662 135.59 295.196 142.747C291.368 150.653 293.873 160.822 300.79 165.46Z" stroke="white" stroke-width="3" stroke-linejoin="round"/>
        <path d="M298.065 182.664C298.101 167.865 302.047 156.658 307.216 148.514" stroke="white" stroke-width="3" stroke-linecap="round" stroke-linejoin="round"/>
    </g>
    <g clip-path="url(#clip6_206_80)">
        <path d="M381.489 61.3739C387.05 59.0149 389.571 52.4188 387.12 46.6412C384.669 40.8636 375.49 39.2312 373.6 30.7751C363.424 38.7953 364.763 49.9538 366.982 55.1844C369.433 60.962 375.928 63.7332 381.489 61.3739Z" stroke="white" stroke-width="3" stroke-linejoin="round"/>
        <path d="M399.647 80.6893C387.132 71.0423 379.852 60.3422 375.843 51.131" stroke="white" stroke-width="3" stroke-linecap="round" stroke-linejoin="round"/>
        <path d="M402.79 70.4597C409.708 75.0976 418.419 72.4489 422.247 64.5434C426.074 56.6378 420.231 44.2306 427.219 34.6946C410.825 29.3914 400.662 40.5905 397.197 47.7475C393.369 55.6531 395.873 65.8216 402.79 70.4597Z" stroke="white" stroke-width="3" stroke-linejoin="round"/>
        <path d="M400.065 87.6643C400.101 72.865 404.047 61.6581 409.216 53.5137" stroke="white" stroke-width="3" stroke-linecap="round" stroke-linejoin="round"/>
    </g>
    <g clip-path="url(#clip7_206_80)">
        <path d="M381.489 156.374C387.05 154.015 389.571 147.419 387.12 141.641C384.669 135.864 375.49 134.231 373.6 125.775C363.424 133.795 364.763 144.954 366.982 150.184C369.433 155.962 375.928 158.733 381.489 156.374Z" stroke="white" stroke-width="3" stroke-linejoin="round"/>
        <path d="M399.647 175.689C387.132 166.042 379.852 155.342 375.843 146.131" stroke="white" stroke-width="3" stroke-linecap="round" stroke-linejoin="round"/>
        <path d="M402.79 165.46C409.708 170.098 418.419 167.449 422.247 159.543C426.074 151.638 420.231 139.231 427.219 129.695C410.825 124.391 400.662 135.59 397.197 142.747C393.369 150.653 395.873 160.822 402.79 165.46Z" stroke="white" stroke-width="3" stroke-linejoin="round"/>
        <path d="M400.065 182.664C400.101 167.865 404.047 156.658 409.216 148.514" stroke="white" stroke-width="3" stroke-linecap="round" stroke-linejoin="round"/>
    </g>
    <g clip-path="url(#clip8_206_80)">
        <path d="M495.942 64.3739C501.503 62.0149 504.024 55.4188 501.573 49.6412C499.122 43.8636 489.943 42.2312 488.053 33.7751C477.877 41.7953 479.216 52.9538 481.435 58.1844C483.886 63.962 490.381 66.7332 495.942 64.3739Z" stroke="white" stroke-width="3" stroke-linejoin="round"/>
        <path d="M514.098 83.6893C501.584 74.0423 494.304 63.3422 490.295 54.131" stroke="white" stroke-width="3" stroke-linecap="round" stroke-linejoin="round"/>
        <path d="M517.243 73.4597C524.16 78.0976 532.871 75.4489 536.699 67.5434C540.527 59.6378 534.683 47.2306 541.671 37.6946C525.277 32.3914 515.114 43.5905 511.649 50.7475C507.821 58.6531 510.325 68.8216 517.243 73.4597Z" stroke="white" stroke-width="3" stroke-linejoin="round"/>
        <path d="M514.518 90.6643C514.553 75.865 518.499 64.6581 523.668 56.5137" stroke="white" stroke-width="3" stroke-linecap="round" stroke-linejoin="round"/>
    </g>
    <g clip-path="url(#clip9_206_80)">
        <path d="M495.942 159.374C501.503 157.015 504.024 150.419 501.573 144.641C499.122 138.864 489.943 137.231 488.053 128.775C477.877 136.795 479.216 147.954 481.435 153.184C483.886 158.962 490.381 161.733 495.942 159.374Z" stroke="white" stroke-width="3" stroke-linejoin="round"/>
        <path d="M514.098 178.689C501.584 169.042 494.304 158.342 490.295 149.131" stroke="white" stroke-width="3" stroke-linecap="round" stroke-linejoin="round"/>
        <path d="M517.243 168.46C524.16 173.098 532.871 170.449 536.699 162.543C540.527 154.638 534.683 142.231 541.671 132.695C525.277 127.391 515.114 138.59 511.649 145.747C507.821 153.653 510.325 163.822 517.243 168.46Z" stroke="white" stroke-width="3" stroke-linejoin="round"/>
        <path d="M514.518 185.664C514.553 170.865 518.499 159.658 523.668 151.514" stroke="white" stroke-width="3" stroke-linecap="round" stroke-linejoin="round"/>
    </g>
    <g clip-path="url(#clip10_206_80)">
        <path d="M597.942 64.3739C603.503 62.0149 606.024 55.4188 603.573 49.6412C601.122 43.8636 591.943 42.2312 590.053 33.7751C579.877 41.7953 581.216 52.9538 583.435 58.1844C585.886 63.962 592.381 66.7332 597.942 64.3739Z" stroke="white" stroke-width="3" stroke-linejoin="round"/>
        <path d="M616.098 83.6893C603.584 74.0423 596.304 63.3422 592.295 54.131" stroke="white" stroke-width="3" stroke-linecap="round" stroke-linejoin="round"/>
        <path d="M619.243 73.4597C626.16 78.0976 634.871 75.4489 638.699 67.5434C642.527 59.6378 636.683 47.2306 643.671 37.6946C627.277 32.3914 617.114 43.5905 613.649 50.7475C609.821 58.6531 612.325 68.8216 619.243 73.4597Z" stroke="white" stroke-width="3" stroke-linejoin="round"/>
        <path d="M616.518 90.6643C616.553 75.865 620.499 64.6581 625.668 56.5137" stroke="white" stroke-width="3" stroke-linecap="round" stroke-linejoin="round"/>
    </g>
    <g clip-path="url(#clip11_206_80)">
        <path d="M597.942 159.374C603.503 157.015 606.024 150.419 603.573 144.641C601.122 138.864 591.943 137.231 590.053 128.775C579.877 136.795 581.216 147.954 583.435 153.184C585.886 158.962 592.381 161.733 597.942 159.374Z" stroke="white" stroke-width="3" stroke-linejoin="round"/>
        <path d="M616.098 178.689C603.584 169.042 596.304 158.342 592.295 149.131" stroke="white" stroke-width="3" stroke-linecap="round" stroke-linejoin="round"/>
        <path d="M619.243 168.46C626.16 173.098 634.871 170.449 638.699 162.543C642.527 154.638 636.683 142.231 643.671 132.695C627.277 127.391 617.114 138.59 613.649 145.747C609.821 153.653 612.325 163.822 619.243 168.46Z" stroke="white" stroke-width="3" stroke-linejoin="round"/>
        <path d="M616.518 185.664C616.553 170.865 620.499 159.658 625.668 151.514" stroke="white" stroke-width="3" stroke-linecap="round" stroke-linejoin="round"/>
    </g>
    <defs>
        <clipPath id="clip0_206_80">
            <rect width="75" height="75" fill="white" transform="translate(31 37.5) rotate(-30)"/>
        </clipPath>
        <clipPath id="clip1_206_80">
            <rect width="75" height="75" fill="white" transform="translate(31 132.5) rotate(-30)"/>
        </clipPath>
        <clipPath id="clip2_206_80">
            <rect width="75" height="75" fill="white" transform="translate(133 37.5) rotate(-30)"/>
        </clipPath>
        <clipPath id="clip3_206_80">
            <rect width="75" height="75" fill="white" transform="translate(133 132.5) rotate(-30)"/>
        </clipPath>
        <clipPath id="clip4_206_80">
            <rect width="75" height="75" fill="white" transform="translate(247.452 37.5) rotate(-30)"/>
        </clipPath>
        <clipPath id="clip5_206_80">
            <rect width="75" height="75" fill="white" transform="translate(247.452 132.5) rotate(-30)"/>
        </clipPath>
        <clipPath id="clip6_206_80">
            <rect width="75" height="75" fill="white" transform="translate(349.452 37.5) rotate(-30)"/>
        </clipPath>
        <clipPath id="clip7_206_80">
            <rect width="75" height="75" fill="white" transform="translate(349.452 132.5) rotate(-30)"/>
        </clipPath>
        <clipPath id="clip8_206_80">
            <rect width="75" height="75" fill="white" transform="translate(463.904 40.5) rotate(-30)"/>
        </clipPath>
        <clipPath id="clip9_206_80">
            <rect width="75" height="75" fill="white" transform="translate(463.904 135.5) rotate(-30)"/>
        </clipPath>
        <clipPath id="clip10_206_80">
            <rect width="75" height="75" fill="white" transform="translate(565.904 40.5) rotate(-30)"/>
        </clipPath>
        <clipPath id="clip11_206_80">
            <rect width="75" height="75" fill="white" transform="translate(565.904 135.5) rotate(-30)"/>
        </clipPath>
    </defs>
</svg>