<svg width="300" height="300" viewBox="0 0 300 300" fill="none" xmlns="http://www.w3.org/2000/svg">
<rect width="300" height="300" fill="#FFF8E5"/>
<path d="M160 148C160 148 150 155.273 150 168" stroke="#D2A509" stroke-width="3" stroke-linecap="round" stroke-linejoin="round"/>
<path d="M143.386 139.52C148.205 134.88 148.205 127.356 143.386 122.716C136.115 115.714 120.119 117.114 120.119 117.114C120.119 117.114 118.664 132.518 125.936 139.52C130.754 144.16 138.567 144.16 143.386 139.52Z" stroke="#D2A509" stroke-width="3" stroke-linecap="round" stroke-linejoin="round"/>
<path d="M161.079 147.055C165.184 150.982 171.839 150.982 175.944 147.055C182.138 141.131 180.899 128.097 180.899 128.097C180.899 128.097 167.272 126.912 161.079 132.836C156.974 136.763 156.974 143.129 161.079 147.055Z" stroke="#D2A509" stroke-width="3" stroke-linecap="round" stroke-linejoin="round"/>
<path d="M143 141C143 141 150 150.001 150 168" stroke="#D2A509" stroke-width="3" stroke-linecap="round" stroke-linejoin="round"/>
<path d="M185 183C176.571 173.802 164.239 168 150.5 168C136.761 168 124.429 173.802 116 183" stroke="#D2A509" stroke-width="3" stroke-linecap="round" stroke-linejoin="round"/>
</svg>
