<svg width="300" height="300" viewBox="0 0 300 300" fill="none" xmlns="http://www.w3.org/2000/svg">
<rect width="300" height="300" fill="#EDEDED"/>
<path d="M133.555 160.38C129.134 163.013 117.542 168.388 124.602 175.114C128.051 178.4 131.892 180.75 136.721 180.75H164.278C169.108 180.75 172.949 178.4 176.398 175.114C183.458 168.388 171.866 163.013 167.445 160.38C157.078 154.207 143.922 154.207 133.555 160.38Z" stroke="#395C0A" stroke-width="3" stroke-linecap="round" stroke-linejoin="round"/>
<path d="M164.562 132.312C164.562 140.079 158.267 146.375 150.5 146.375C142.734 146.375 136.438 140.079 136.438 132.312C136.438 124.546 142.734 118.25 150.5 118.25C158.267 118.25 164.562 124.546 164.562 132.312Z" stroke="#395C0A" stroke-width="3"/>
</svg>
