<svg width="700" height="200" viewBox="0 0 700 200" fill="none" xmlns="http://www.w3.org/2000/svg">
<rect width="700" height="200" fill="#B89006"/>
<path d="M380.045 112.326C378.991 113.327 379.834 114.646 382.26 115.859C385.318 117.44 387.797 119.813 389.168 122.555C390.75 125.614 390.539 126.774 388.113 128.303C385.002 130.201 383.315 132.89 382.998 136.581L382.735 139.692L379.676 140.852C375.563 142.487 369.71 146.653 367.865 149.342C363.119 156.144 367.865 163.948 377.198 164.634L380.889 164.95L381.68 167.323C382.787 170.645 387.058 174.705 390.75 176.076C392.964 176.814 393.966 177.552 394.915 179.081C396.497 181.507 397.393 181.56 398.343 179.187C398.764 178.185 399.555 177.183 400.083 177.025C400.61 176.867 402.508 176.023 404.301 175.179C408.045 173.387 410.418 170.856 411.736 167.217L412.58 164.739H415.532C419.487 164.792 422.493 163.473 425.024 160.626C428.926 156.144 428.451 152.084 423.389 147.127C421.122 144.913 418.854 143.383 415.48 141.749L410.681 139.481L410.576 136.95C410.365 132.943 408.467 130.148 403.932 127.195C402.666 126.352 402.666 126.352 403.563 124.032C404.881 120.604 407.148 118.179 410.734 116.228C414.003 114.488 414.952 112.853 413.16 112.115C411.841 111.64 407.887 113.433 405.303 115.7C403.141 117.651 399.714 123.241 399.714 124.981C399.714 125.455 398.87 125.666 396.866 125.666H394.019L393.07 123.03C391.646 119.075 388.851 115.7 385.213 113.697C382.102 112.009 380.731 111.64 380.045 112.326ZM391.277 142.803C392.279 144.016 391.646 149.395 390.169 152.347C388.482 155.669 384.053 159.624 380.731 160.732C376.829 162.05 374.192 161.417 371.398 158.622C368.128 155.353 368.498 153.138 372.98 149.026C378.411 144.016 389.273 140.378 391.277 142.803ZM408.625 142.803C410.47 143.278 413.423 144.385 415.216 145.334C418.96 147.338 423.706 151.873 424.075 153.824C424.655 156.724 421.175 160.573 417.378 161.312C412.843 162.155 406.094 158.042 403.51 152.98C402.245 150.396 401.19 145.651 401.559 144.385C401.717 143.963 401.928 143.225 402.086 142.803C402.403 141.802 404.301 141.802 408.625 142.803ZM399.292 151.926C399.819 153.349 400.821 155.353 401.559 156.46C402.297 157.515 402.877 158.517 402.877 158.622C402.877 159.097 395.759 159.519 393.175 159.202L390.328 158.833L392.12 155.828C393.122 154.193 394.071 152.242 394.282 151.504C394.757 149.5 394.915 149.395 396.708 149.395C398.29 149.395 398.501 149.606 399.292 151.926ZM407.676 167.745C406.674 169.643 402.877 172.438 400.452 173.123C397.077 174.072 392.701 173.492 389.8 171.699C387.533 170.328 385.002 167.586 385.529 167.112C385.635 167.006 387.428 167.27 389.431 167.692C393.65 168.588 400.979 168.325 405.25 167.165C406.727 166.743 407.939 166.479 408.045 166.585C408.15 166.637 407.992 167.165 407.676 167.745Z" fill="white"/>
<path d="M276.743 114.34C276.11 114.604 275.109 115.448 274.476 116.291C271.365 120.193 276.743 125.255 281.014 122.461C282.227 121.67 282.385 121.723 284.073 122.988C285.022 123.726 286.182 124.939 286.551 125.677C287.236 126.943 287.131 127.101 285.022 128.894C282.28 131.267 280.856 133.956 280.434 137.7L280.118 140.494L276.849 141.18C269.625 142.656 264.563 146.664 263.35 151.831C260.871 162.113 272.05 172.396 281.489 168.441C282.596 167.966 283.651 167.597 283.862 167.597C284.073 167.597 284.758 168.652 285.338 169.917C286.656 172.607 291.666 178.196 294.249 179.725L296.042 180.885L297.835 179.778C300.472 178.143 305.639 172.396 306.799 169.812C307.906 167.386 308.276 167.228 310.279 168.388C312.388 169.601 317.503 169.39 320.562 167.914C328.893 164.064 331.635 152.622 325.676 146.347C323.673 144.185 318.821 141.865 314.867 141.127L311.439 140.494L311.176 137.541C310.807 133.323 309.066 130.37 305.586 127.945L304.374 127.048L305.481 125.466C306.114 124.57 307.326 123.357 308.17 122.777C309.646 121.723 309.857 121.723 310.912 122.461C314.023 124.675 318.189 122.513 318.189 118.664C318.189 115.975 316.396 114.235 313.654 114.235C312.125 114.235 311.334 114.551 310.437 115.659C309.752 116.397 309.225 117.346 309.225 117.768C309.225 118.137 308.065 119.35 306.641 120.404C305.164 121.459 303.53 123.041 302.95 123.99L301.895 125.677L296.095 125.625L290.242 125.572L287.922 122.988C286.656 121.564 285.022 120.088 284.283 119.666C283.545 119.244 282.86 118.348 282.649 117.451C282.227 115.184 278.958 113.444 276.743 114.34ZM299.944 128.261C303.53 129.368 306.377 131.425 307.643 133.85C309.172 136.803 308.961 136.961 306.852 134.536C304.11 131.319 300.946 129.948 296.095 129.948C291.033 129.948 287.342 131.478 284.653 134.589C283.071 136.434 282.913 136.54 283.387 135.327C284.653 131.794 287.078 129.632 291.455 128.261C294.408 127.365 296.939 127.365 299.944 128.261ZM292.773 143.131L294.355 143.447L293.3 147.244C291.929 152.2 288.66 158.897 286.34 161.639C282.543 166.068 278.536 167.545 274.001 166.226C266.83 164.17 263.192 155.206 267.146 149.3C268.781 146.822 272.788 144.554 277.218 143.605C280.645 142.867 289.978 142.603 292.773 143.131ZM317.398 144.344C323.409 146.505 326.362 150.038 326.309 154.942C326.204 160.637 321.985 165.594 316.238 166.701C311.703 167.597 306.272 163.854 302.686 157.421C301.052 154.52 297.624 145.398 297.624 143.974C297.624 143.078 299.575 142.867 307.115 143.025C312.81 143.183 314.867 143.394 317.398 144.344ZM296.833 150.302C297.15 151.62 297.044 151.778 295.884 151.778C294.619 151.778 294.566 151.726 295.146 149.933C295.726 147.929 296.306 148.035 296.833 150.302ZM300.419 158.581C300.946 159.53 301.262 160.479 301.104 160.584C300.524 161.217 295.779 161.744 293.722 161.481C290.084 160.953 290.084 160.953 291.349 158.791C292.509 156.788 292.509 156.788 295.989 156.788C299.47 156.788 299.522 156.788 300.419 158.581ZM305.164 164.855C305.955 165.699 305.955 165.91 305.217 166.965C302.106 171.447 289.662 171.605 286.762 167.228C286.024 166.015 286.024 165.805 286.709 165.066C287.447 164.328 287.816 164.381 290.506 165.225C294.038 166.332 299.681 166.121 302.106 164.803C304.11 163.695 304.163 163.695 305.164 164.855Z" fill="white"/>
<path d="M600.045 112.326C598.991 113.327 599.834 114.646 602.26 115.859C605.318 117.44 607.797 119.813 609.168 122.555C610.75 125.614 610.539 126.774 608.113 128.303C605.002 130.201 603.315 132.89 602.998 136.581L602.735 139.692L599.676 140.852C595.563 142.487 589.71 146.653 587.865 149.342C583.119 156.144 587.865 163.948 597.198 164.634L600.889 164.95L601.68 167.323C602.787 170.645 607.058 174.705 610.75 176.076C612.964 176.814 613.966 177.552 614.915 179.081C616.497 181.507 617.393 181.56 618.343 179.187C618.764 178.185 619.555 177.183 620.083 177.025C620.61 176.867 622.508 176.023 624.301 175.179C628.045 173.387 630.418 170.856 631.736 167.217L632.58 164.739H635.532C639.487 164.792 642.493 163.473 645.024 160.626C648.926 156.144 648.451 152.084 643.389 147.127C641.122 144.913 638.854 143.383 635.48 141.749L630.681 139.481L630.576 136.95C630.365 132.943 628.467 130.148 623.932 127.195C622.666 126.352 622.666 126.352 623.563 124.032C624.881 120.604 627.148 118.179 630.734 116.228C634.003 114.488 634.952 112.853 633.16 112.115C631.841 111.64 627.887 113.433 625.303 115.7C623.141 117.651 619.714 123.241 619.714 124.981C619.714 125.455 618.87 125.666 616.866 125.666H614.019L613.07 123.03C611.646 119.075 608.851 115.7 605.213 113.697C602.102 112.009 600.731 111.64 600.045 112.326ZM611.277 142.803C612.279 144.016 611.646 149.395 610.169 152.347C608.482 155.669 604.053 159.624 600.731 160.732C596.829 162.05 594.192 161.417 591.398 158.622C588.128 155.353 588.498 153.138 592.98 149.026C598.411 144.016 609.273 140.378 611.277 142.803ZM628.625 142.803C630.47 143.278 633.423 144.385 635.216 145.334C638.96 147.338 643.706 151.873 644.075 153.824C644.655 156.724 641.175 160.573 637.378 161.312C632.843 162.155 626.094 158.042 623.51 152.98C622.245 150.396 621.19 145.651 621.559 144.385C621.717 143.963 621.928 143.225 622.086 142.803C622.403 141.802 624.301 141.802 628.625 142.803ZM619.292 151.926C619.819 153.349 620.821 155.353 621.559 156.46C622.297 157.515 622.877 158.517 622.877 158.622C622.877 159.097 615.759 159.519 613.175 159.202L610.328 158.833L612.12 155.828C613.122 154.193 614.071 152.242 614.282 151.504C614.757 149.5 614.915 149.395 616.708 149.395C618.29 149.395 618.501 149.606 619.292 151.926ZM627.676 167.745C626.674 169.643 622.877 172.438 620.452 173.123C617.077 174.072 612.701 173.492 609.8 171.699C607.533 170.328 605.002 167.586 605.529 167.112C605.635 167.006 607.428 167.27 609.431 167.692C613.65 168.588 620.979 168.325 625.25 167.165C626.727 166.743 627.939 166.479 628.045 166.585C628.15 166.637 627.992 167.165 627.676 167.745Z" fill="white"/>
<path d="M496.743 114.34C496.11 114.604 495.109 115.448 494.476 116.291C491.365 120.193 496.743 125.255 501.014 122.461C502.227 121.67 502.385 121.723 504.073 122.988C505.022 123.726 506.182 124.939 506.551 125.677C507.236 126.943 507.131 127.101 505.022 128.894C502.28 131.267 500.856 133.956 500.434 137.7L500.118 140.494L496.849 141.18C489.625 142.656 484.563 146.664 483.35 151.831C480.871 162.113 492.05 172.396 501.489 168.441C502.596 167.966 503.651 167.597 503.862 167.597C504.073 167.597 504.758 168.652 505.338 169.917C506.656 172.607 511.666 178.196 514.249 179.725L516.042 180.885L517.835 179.778C520.472 178.143 525.639 172.396 526.799 169.812C527.906 167.386 528.276 167.228 530.279 168.388C532.388 169.601 537.503 169.39 540.562 167.914C548.893 164.064 551.635 152.622 545.676 146.347C543.673 144.185 538.821 141.865 534.867 141.127L531.439 140.494L531.176 137.541C530.807 133.323 529.066 130.37 525.586 127.945L524.374 127.048L525.481 125.466C526.114 124.57 527.326 123.357 528.17 122.777C529.646 121.723 529.857 121.723 530.912 122.461C534.023 124.675 538.189 122.513 538.189 118.664C538.189 115.975 536.396 114.235 533.654 114.235C532.125 114.235 531.334 114.551 530.437 115.659C529.752 116.397 529.225 117.346 529.225 117.768C529.225 118.137 528.065 119.35 526.641 120.404C525.164 121.459 523.53 123.041 522.95 123.99L521.895 125.677L516.095 125.625L510.242 125.572L507.922 122.988C506.656 121.564 505.022 120.088 504.283 119.666C503.545 119.244 502.86 118.348 502.649 117.451C502.227 115.184 498.958 113.444 496.743 114.34ZM519.944 128.261C523.53 129.368 526.377 131.425 527.643 133.85C529.172 136.803 528.961 136.961 526.852 134.536C524.11 131.319 520.946 129.948 516.095 129.948C511.033 129.948 507.342 131.478 504.653 134.589C503.071 136.434 502.913 136.54 503.387 135.327C504.653 131.794 507.078 129.632 511.455 128.261C514.408 127.365 516.939 127.365 519.944 128.261ZM512.773 143.131L514.355 143.447L513.3 147.244C511.929 152.2 508.66 158.897 506.34 161.639C502.543 166.068 498.536 167.545 494.001 166.226C486.83 164.17 483.192 155.206 487.146 149.3C488.781 146.822 492.788 144.554 497.218 143.605C500.645 142.867 509.978 142.603 512.773 143.131ZM537.398 144.344C543.409 146.505 546.362 150.038 546.309 154.942C546.204 160.637 541.985 165.594 536.238 166.701C531.703 167.597 526.272 163.854 522.686 157.421C521.052 154.52 517.624 145.398 517.624 143.974C517.624 143.078 519.575 142.867 527.115 143.025C532.81 143.183 534.867 143.394 537.398 144.344ZM516.833 150.302C517.15 151.62 517.044 151.778 515.884 151.778C514.619 151.778 514.566 151.726 515.146 149.933C515.726 147.929 516.306 148.035 516.833 150.302ZM520.419 158.581C520.946 159.53 521.262 160.479 521.104 160.584C520.524 161.217 515.779 161.744 513.722 161.481C510.084 160.953 510.084 160.953 511.349 158.791C512.509 156.788 512.509 156.788 515.989 156.788C519.47 156.788 519.522 156.788 520.419 158.581ZM525.164 164.855C525.955 165.699 525.955 165.91 525.217 166.965C522.106 171.447 509.662 171.605 506.762 167.228C506.024 166.015 506.024 165.805 506.709 165.066C507.447 164.328 507.816 164.381 510.506 165.225C514.038 166.332 519.681 166.121 522.106 164.803C524.11 163.695 524.163 163.695 525.164 164.855Z" fill="white"/>
<path d="M167.045 112.326C165.991 113.327 166.834 114.646 169.26 115.859C172.318 117.44 174.797 119.813 176.168 122.555C177.75 125.614 177.539 126.774 175.113 128.303C172.002 130.201 170.315 132.89 169.998 136.581L169.735 139.692L166.676 140.852C162.563 142.487 156.71 146.653 154.865 149.342C150.119 156.144 154.865 163.948 164.198 164.634L167.889 164.95L168.68 167.323C169.787 170.645 174.058 174.705 177.75 176.076C179.964 176.814 180.966 177.552 181.915 179.081C183.497 181.507 184.393 181.56 185.343 179.187C185.764 178.185 186.555 177.183 187.083 177.025C187.61 176.867 189.508 176.023 191.301 175.179C195.045 173.387 197.418 170.856 198.736 167.217L199.58 164.739H202.532C206.487 164.792 209.493 163.473 212.024 160.626C215.926 156.144 215.451 152.084 210.389 147.127C208.122 144.913 205.854 143.383 202.48 141.749L197.681 139.481L197.576 136.95C197.365 132.943 195.467 130.148 190.932 127.195C189.666 126.352 189.666 126.352 190.563 124.032C191.881 120.604 194.148 118.179 197.734 116.228C201.003 114.488 201.952 112.853 200.16 112.115C198.841 111.64 194.887 113.433 192.303 115.7C190.141 117.651 186.714 123.241 186.714 124.981C186.714 125.455 185.87 125.666 183.866 125.666H181.019L180.07 123.03C178.646 119.075 175.851 115.7 172.213 113.697C169.102 112.009 167.731 111.64 167.045 112.326ZM178.277 142.803C179.279 144.016 178.646 149.395 177.169 152.347C175.482 155.669 171.053 159.624 167.731 160.732C163.829 162.05 161.192 161.417 158.398 158.622C155.128 155.353 155.498 153.138 159.98 149.026C165.411 144.016 176.273 140.378 178.277 142.803ZM195.625 142.803C197.47 143.278 200.423 144.385 202.216 145.334C205.96 147.338 210.706 151.873 211.075 153.824C211.655 156.724 208.175 160.573 204.378 161.312C199.843 162.155 193.094 158.042 190.51 152.98C189.245 150.396 188.19 145.651 188.559 144.385C188.717 143.963 188.928 143.225 189.086 142.803C189.403 141.802 191.301 141.802 195.625 142.803ZM186.292 151.926C186.819 153.349 187.821 155.353 188.559 156.46C189.297 157.515 189.877 158.517 189.877 158.622C189.877 159.097 182.759 159.519 180.175 159.202L177.328 158.833L179.12 155.828C180.122 154.193 181.071 152.242 181.282 151.504C181.757 149.5 181.915 149.395 183.708 149.395C185.29 149.395 185.501 149.606 186.292 151.926ZM194.676 167.745C193.674 169.643 189.877 172.438 187.452 173.123C184.077 174.072 179.701 173.492 176.8 171.699C174.533 170.328 172.002 167.586 172.529 167.112C172.635 167.006 174.428 167.27 176.431 167.692C180.65 168.588 187.979 168.325 192.25 167.165C193.727 166.743 194.939 166.479 195.045 166.585C195.15 166.637 194.992 167.165 194.676 167.745Z" fill="white"/>
<path d="M63.7431 114.34C63.1104 114.604 62.1085 115.448 61.4758 116.291C58.3647 120.193 63.7431 125.255 68.0142 122.461C69.227 121.67 69.3852 121.723 71.0726 122.988C72.0217 123.726 73.1818 124.939 73.5509 125.677C74.2363 126.943 74.1309 127.101 72.0217 128.894C69.2798 131.267 67.8561 133.956 67.4342 137.7L67.1178 140.494L63.8486 141.18C56.6246 142.656 51.5626 146.664 50.3498 151.831C47.8715 162.113 59.0502 172.396 68.4888 168.441C69.5961 167.966 70.6507 167.597 70.8616 167.597C71.0726 167.597 71.7581 168.652 72.3381 169.917C73.6563 172.607 78.6656 178.196 81.2494 179.725L83.0422 180.885L84.835 179.778C87.4715 178.143 92.639 172.396 93.7991 169.812C94.9064 167.386 95.2755 167.228 97.2792 168.388C99.3884 169.601 104.503 169.39 107.562 167.914C115.893 164.064 118.635 152.622 112.676 146.347C110.673 144.185 105.821 141.865 101.867 141.127L98.4393 140.494L98.1756 137.541C97.8065 133.323 96.0665 130.37 92.5863 127.945L91.3735 127.048L92.4808 125.466C93.1136 124.57 94.3264 123.357 95.1701 122.777C96.6465 121.723 96.8574 121.723 97.912 122.461C101.023 124.675 105.189 122.513 105.189 118.664C105.189 115.975 103.396 114.235 100.654 114.235C99.1248 114.235 98.3338 114.551 97.4374 115.659C96.7519 116.397 96.2246 117.346 96.2246 117.768C96.2246 118.137 95.0646 119.35 93.6409 120.404C92.1645 121.459 90.5298 123.041 89.9498 123.99L88.8952 125.677L83.0949 125.625L77.2419 125.572L74.9218 122.988C73.6563 121.564 72.0217 120.088 71.2835 119.666C70.5453 119.244 69.8598 118.348 69.6489 117.451C69.227 115.184 65.9578 113.444 63.7431 114.34ZM86.9442 128.261C90.5298 129.368 93.3772 131.425 94.6428 133.85C96.1719 136.803 95.961 136.961 93.8518 134.536C91.1099 131.319 87.9461 129.948 83.0949 129.948C78.0329 129.948 74.3418 131.478 71.6526 134.589C70.0707 136.434 69.9125 136.54 70.3871 135.327C71.6526 131.794 74.0782 129.632 78.4547 128.261C81.4076 127.365 83.9386 127.365 86.9442 128.261ZM79.773 143.131L81.3549 143.447L80.3003 147.244C78.9293 152.2 75.6601 158.897 73.3399 161.639C69.5434 166.068 65.5359 167.545 61.0012 166.226C53.8299 164.17 50.1916 155.206 54.1463 149.3C55.7809 146.822 59.7884 144.554 64.2177 143.605C67.6451 142.867 76.9783 142.603 79.773 143.131ZM104.398 144.344C110.409 146.505 113.362 150.038 113.309 154.942C113.204 160.637 108.985 165.594 103.238 166.701C98.7029 167.597 93.2718 163.854 89.6862 157.421C88.0515 154.52 84.6241 145.398 84.6241 143.974C84.6241 143.078 86.5751 142.867 94.1155 143.025C99.8103 143.183 101.867 143.394 104.398 144.344ZM83.8332 150.302C84.1495 151.62 84.0441 151.778 82.884 151.778C81.6185 151.778 81.5658 151.726 82.1458 149.933C82.7258 147.929 83.3059 148.035 83.8332 150.302ZM87.4188 158.581C87.9461 159.53 88.2625 160.479 88.1043 160.584C87.5242 161.217 82.7786 161.744 80.7221 161.481C77.0838 160.953 77.0838 160.953 78.3493 158.791C79.5093 156.788 79.5093 156.788 82.9895 156.788C86.4696 156.788 86.5224 156.788 87.4188 158.581ZM92.1645 164.855C92.9554 165.699 92.9554 165.91 92.2172 166.965C89.1061 171.447 76.6619 171.605 73.7618 167.228C73.0236 166.015 73.0236 165.805 73.7091 165.066C74.4473 164.328 74.8164 164.381 77.5056 165.225C81.0385 166.332 86.6806 166.121 89.1061 164.803C91.1099 163.695 91.1626 163.695 92.1645 164.855Z" fill="white"/>
<path d="M380.045 20.3256C378.991 21.3275 379.834 22.6457 382.26 23.8585C385.318 25.4404 387.797 27.8133 389.168 30.5552C390.75 33.6135 390.539 34.7736 388.113 36.3027C385.002 38.201 383.315 40.8902 382.998 44.5813L382.735 47.6924L379.676 48.8524C375.563 50.487 369.71 54.6527 367.865 57.3419C363.119 64.144 367.865 71.948 377.198 72.6335L380.889 72.9499L381.68 75.3227C382.787 78.6447 387.058 82.7049 390.75 84.0759C392.964 84.8141 393.966 85.5523 394.915 87.0815C396.497 89.507 397.393 89.5598 398.343 87.1869C398.764 86.1851 399.555 85.1832 400.083 85.025C400.61 84.8668 402.508 84.0231 404.301 83.1795C408.045 81.3867 410.418 78.8556 411.736 75.2173L412.58 72.739H415.532C419.487 72.7917 422.493 71.4735 425.024 68.6261C428.926 64.144 428.451 60.0838 423.389 55.1272C421.122 52.9126 418.854 51.3834 415.48 49.7488L410.681 47.4814L410.576 44.9504C410.365 40.943 408.467 38.1483 403.932 35.1954C402.666 34.3517 402.666 34.3517 403.563 32.0316C404.881 28.6042 407.148 26.1786 410.734 24.2276C414.003 22.4876 414.952 20.8529 413.16 20.1147C411.841 19.6401 407.887 21.433 405.303 23.7003C403.141 25.6513 399.714 31.2407 399.714 32.9808C399.714 33.4553 398.87 33.6663 396.866 33.6663H394.019L393.07 31.0298C391.646 27.075 388.851 23.7003 385.213 21.6966C382.102 20.0093 380.731 19.6401 380.045 20.3256ZM391.277 50.8034C392.279 52.0162 391.646 57.3946 390.169 60.3475C388.482 63.6695 384.053 67.6242 380.731 68.7315C376.829 70.0498 374.192 69.417 371.398 66.6223C368.128 63.3531 368.498 61.1384 372.98 57.0255C378.411 52.0162 389.273 48.3778 391.277 50.8034ZM408.625 50.8034C410.47 51.278 413.423 52.3853 415.216 53.3344C418.96 55.3382 423.706 59.8729 424.075 61.8239C424.655 64.7241 421.175 68.5733 417.378 69.3115C412.843 70.1552 406.094 66.0423 403.51 60.9802C402.245 58.3965 401.19 53.6508 401.559 52.3853C401.717 51.9635 401.928 51.2253 402.086 50.8034C402.403 49.8015 404.301 49.8015 408.625 50.8034ZM399.292 59.9257C399.819 61.3494 400.821 63.3531 401.559 64.4604C402.297 65.515 402.877 66.5169 402.877 66.6223C402.877 67.0969 395.759 67.5187 393.175 67.2024L390.328 66.8332L392.12 63.8277C393.122 62.193 394.071 60.242 394.282 59.5038C394.757 57.5001 394.915 57.3946 396.708 57.3946C398.29 57.3946 398.501 57.6055 399.292 59.9257ZM407.676 75.7446C406.674 77.6428 402.877 80.4375 400.452 81.123C397.077 82.0721 392.701 81.4921 389.8 79.6993C387.533 78.3283 385.002 75.5864 385.529 75.1118C385.635 75.0064 387.428 75.27 389.431 75.6918C393.65 76.5882 400.979 76.3246 405.25 75.1645C406.727 74.7427 407.939 74.4791 408.045 74.5845C408.15 74.6372 407.992 75.1645 407.676 75.7446Z" fill="white"/>
<path d="M276.743 22.3403C276.11 22.604 275.109 23.4477 274.476 24.2913C271.365 28.1933 276.743 33.2554 281.014 30.4607C282.227 29.6698 282.385 29.7225 284.073 30.988C285.022 31.7262 286.182 32.939 286.551 33.6772C287.236 34.9427 287.131 35.1009 285.022 36.8937C282.28 39.2666 280.856 41.9558 280.434 45.6996L280.118 48.4943L276.849 49.1798C269.625 50.6562 264.563 54.6637 263.35 59.8312C260.871 70.1135 272.05 80.3958 281.489 76.441C282.596 75.9665 283.651 75.5974 283.862 75.5974C284.073 75.5974 284.758 76.652 285.338 77.9175C286.656 80.6067 291.666 86.196 294.249 87.7252L296.042 88.8853L297.835 87.7779C300.472 86.1433 305.639 80.3958 306.799 77.812C307.906 75.3864 308.276 75.2283 310.279 76.3883C312.388 77.6011 317.503 77.3902 320.562 75.9137C328.893 72.0645 331.635 60.6221 325.676 54.3473C323.673 52.1854 318.821 49.8653 314.867 49.127L311.439 48.4943L311.176 45.5414C310.807 41.323 309.066 38.3702 305.586 35.9446L304.374 35.0482L305.481 33.4663C306.114 32.5699 307.326 31.3571 308.17 30.7771C309.646 29.7225 309.857 29.7225 310.912 30.4607C314.023 32.6754 318.189 30.5134 318.189 26.6642C318.189 23.975 316.396 22.2349 313.654 22.2349C312.125 22.2349 311.334 22.5513 310.437 23.6586C309.752 24.3968 309.225 25.3459 309.225 25.7678C309.225 26.1369 308.065 27.3497 306.641 28.4043C305.164 29.4589 303.53 31.0407 302.95 31.9899L301.895 33.6772L296.095 33.6245L290.242 33.5718L287.922 30.988C286.656 29.5643 285.022 28.0879 284.283 27.666C283.545 27.2442 282.86 26.3478 282.649 25.4514C282.227 23.184 278.958 21.4439 276.743 22.3403ZM299.944 36.261C303.53 37.3683 306.377 39.4248 307.643 41.8503C309.172 44.8032 308.961 44.9614 306.852 42.5358C304.11 39.3193 300.946 37.9483 296.095 37.9483C291.033 37.9483 287.342 39.4775 284.653 42.5886C283.071 44.4341 282.913 44.5396 283.387 43.3268C284.653 39.7939 287.078 37.632 291.455 36.261C294.408 35.3646 296.939 35.3646 299.944 36.261ZM292.773 51.1308L294.355 51.4471L293.3 55.2437C291.929 60.2003 288.66 66.897 286.34 69.6389C282.543 74.0682 278.536 75.5446 274.001 74.2264C266.83 72.1699 263.192 63.2059 267.146 57.3001C268.781 54.8219 272.788 52.5545 277.218 51.6053C280.645 50.8671 289.978 50.6035 292.773 51.1308ZM317.398 52.3436C323.409 54.5055 326.362 58.0384 326.309 62.9422C326.204 68.637 321.985 73.5936 316.238 74.701C311.703 75.5974 306.272 71.8536 302.686 65.4205C301.052 62.5204 297.624 53.3981 297.624 51.9744C297.624 51.078 299.575 50.8671 307.115 51.0253C312.81 51.1835 314.867 51.3944 317.398 52.3436ZM296.833 58.302C297.15 59.6203 297.044 59.7784 295.884 59.7784C294.619 59.7784 294.566 59.7257 295.146 57.9329C295.726 55.9292 296.306 56.0346 296.833 58.302ZM300.419 66.5806C300.946 67.5297 301.262 68.4789 301.104 68.5843C300.524 69.2171 295.779 69.7444 293.722 69.4807C290.084 68.9534 290.084 68.9534 291.349 66.7915C292.509 64.7878 292.509 64.7878 295.989 64.7878C299.47 64.7878 299.522 64.7878 300.419 66.5806ZM305.164 72.8554C305.955 73.6991 305.955 73.91 305.217 74.9646C302.106 79.4466 289.662 79.6048 286.762 75.2283C286.024 74.0155 286.024 73.8046 286.709 73.0663C287.447 72.3281 287.816 72.3808 290.506 73.2245C294.038 74.3318 299.681 74.1209 302.106 72.8027C304.11 71.6954 304.163 71.6954 305.164 72.8554Z" fill="white"/>
<path d="M600.045 20.3256C598.991 21.3275 599.834 22.6457 602.26 23.8585C605.318 25.4404 607.797 27.8133 609.168 30.5552C610.75 33.6135 610.539 34.7736 608.113 36.3027C605.002 38.201 603.315 40.8902 602.998 44.5813L602.735 47.6924L599.676 48.8524C595.563 50.487 589.71 54.6527 587.865 57.3419C583.119 64.144 587.865 71.948 597.198 72.6335L600.889 72.9499L601.68 75.3227C602.787 78.6447 607.058 82.7049 610.75 84.0759C612.964 84.8141 613.966 85.5523 614.915 87.0815C616.497 89.507 617.393 89.5598 618.343 87.1869C618.764 86.1851 619.555 85.1832 620.083 85.025C620.61 84.8668 622.508 84.0231 624.301 83.1795C628.045 81.3867 630.418 78.8556 631.736 75.2173L632.58 72.739H635.532C639.487 72.7917 642.493 71.4735 645.024 68.6261C648.926 64.144 648.451 60.0838 643.389 55.1272C641.122 52.9126 638.854 51.3834 635.48 49.7488L630.681 47.4814L630.576 44.9504C630.365 40.943 628.467 38.1483 623.932 35.1954C622.666 34.3517 622.666 34.3517 623.563 32.0316C624.881 28.6042 627.148 26.1786 630.734 24.2276C634.003 22.4876 634.952 20.8529 633.16 20.1147C631.841 19.6401 627.887 21.433 625.303 23.7003C623.141 25.6513 619.714 31.2407 619.714 32.9808C619.714 33.4553 618.87 33.6663 616.866 33.6663H614.019L613.07 31.0298C611.646 27.075 608.851 23.7003 605.213 21.6966C602.102 20.0093 600.731 19.6401 600.045 20.3256ZM611.277 50.8034C612.279 52.0162 611.646 57.3946 610.169 60.3475C608.482 63.6695 604.053 67.6242 600.731 68.7315C596.829 70.0498 594.192 69.417 591.398 66.6223C588.128 63.3531 588.498 61.1384 592.98 57.0255C598.411 52.0162 609.273 48.3778 611.277 50.8034ZM628.625 50.8034C630.47 51.278 633.423 52.3853 635.216 53.3344C638.96 55.3382 643.706 59.8729 644.075 61.8239C644.655 64.7241 641.175 68.5733 637.378 69.3115C632.843 70.1552 626.094 66.0423 623.51 60.9802C622.245 58.3965 621.19 53.6508 621.559 52.3853C621.717 51.9635 621.928 51.2253 622.086 50.8034C622.403 49.8015 624.301 49.8015 628.625 50.8034ZM619.292 59.9257C619.819 61.3494 620.821 63.3531 621.559 64.4604C622.297 65.515 622.877 66.5169 622.877 66.6223C622.877 67.0969 615.759 67.5187 613.175 67.2024L610.328 66.8332L612.12 63.8277C613.122 62.193 614.071 60.242 614.282 59.5038C614.757 57.5001 614.915 57.3946 616.708 57.3946C618.29 57.3946 618.501 57.6055 619.292 59.9257ZM627.676 75.7446C626.674 77.6428 622.877 80.4375 620.452 81.123C617.077 82.0721 612.701 81.4921 609.8 79.6993C607.533 78.3283 605.002 75.5864 605.529 75.1118C605.635 75.0064 607.428 75.27 609.431 75.6918C613.65 76.5882 620.979 76.3246 625.25 75.1645C626.727 74.7427 627.939 74.4791 628.045 74.5845C628.15 74.6372 627.992 75.1645 627.676 75.7446Z" fill="white"/>
<path d="M496.743 22.3403C496.11 22.604 495.109 23.4477 494.476 24.2913C491.365 28.1933 496.743 33.2554 501.014 30.4607C502.227 29.6698 502.385 29.7225 504.073 30.988C505.022 31.7262 506.182 32.939 506.551 33.6772C507.236 34.9427 507.131 35.1009 505.022 36.8937C502.28 39.2666 500.856 41.9558 500.434 45.6996L500.118 48.4943L496.849 49.1798C489.625 50.6562 484.563 54.6637 483.35 59.8312C480.871 70.1135 492.05 80.3958 501.489 76.441C502.596 75.9665 503.651 75.5974 503.862 75.5974C504.073 75.5974 504.758 76.652 505.338 77.9175C506.656 80.6067 511.666 86.196 514.249 87.7252L516.042 88.8853L517.835 87.7779C520.472 86.1433 525.639 80.3958 526.799 77.812C527.906 75.3864 528.276 75.2283 530.279 76.3883C532.388 77.6011 537.503 77.3902 540.562 75.9137C548.893 72.0645 551.635 60.6221 545.676 54.3473C543.673 52.1854 538.821 49.8653 534.867 49.127L531.439 48.4943L531.176 45.5414C530.807 41.323 529.066 38.3702 525.586 35.9446L524.374 35.0482L525.481 33.4663C526.114 32.5699 527.326 31.3571 528.17 30.7771C529.646 29.7225 529.857 29.7225 530.912 30.4607C534.023 32.6754 538.189 30.5134 538.189 26.6642C538.189 23.975 536.396 22.2349 533.654 22.2349C532.125 22.2349 531.334 22.5513 530.437 23.6586C529.752 24.3968 529.225 25.3459 529.225 25.7678C529.225 26.1369 528.065 27.3497 526.641 28.4043C525.164 29.4589 523.53 31.0407 522.95 31.9899L521.895 33.6772L516.095 33.6245L510.242 33.5718L507.922 30.988C506.656 29.5643 505.022 28.0879 504.283 27.666C503.545 27.2442 502.86 26.3478 502.649 25.4514C502.227 23.184 498.958 21.4439 496.743 22.3403ZM519.944 36.261C523.53 37.3683 526.377 39.4248 527.643 41.8503C529.172 44.8032 528.961 44.9614 526.852 42.5358C524.11 39.3193 520.946 37.9483 516.095 37.9483C511.033 37.9483 507.342 39.4775 504.653 42.5886C503.071 44.4341 502.913 44.5396 503.387 43.3268C504.653 39.7939 507.078 37.632 511.455 36.261C514.408 35.3646 516.939 35.3646 519.944 36.261ZM512.773 51.1308L514.355 51.4471L513.3 55.2437C511.929 60.2003 508.66 66.897 506.34 69.6389C502.543 74.0682 498.536 75.5446 494.001 74.2264C486.83 72.1699 483.192 63.2059 487.146 57.3001C488.781 54.8219 492.788 52.5545 497.218 51.6053C500.645 50.8671 509.978 50.6035 512.773 51.1308ZM537.398 52.3436C543.409 54.5055 546.362 58.0384 546.309 62.9422C546.204 68.637 541.985 73.5936 536.238 74.701C531.703 75.5974 526.272 71.8536 522.686 65.4205C521.052 62.5204 517.624 53.3981 517.624 51.9744C517.624 51.078 519.575 50.8671 527.115 51.0253C532.81 51.1835 534.867 51.3944 537.398 52.3436ZM516.833 58.302C517.15 59.6203 517.044 59.7784 515.884 59.7784C514.619 59.7784 514.566 59.7257 515.146 57.9329C515.726 55.9292 516.306 56.0346 516.833 58.302ZM520.419 66.5806C520.946 67.5297 521.262 68.4789 521.104 68.5843C520.524 69.2171 515.779 69.7444 513.722 69.4807C510.084 68.9534 510.084 68.9534 511.349 66.7915C512.509 64.7878 512.509 64.7878 515.989 64.7878C519.47 64.7878 519.522 64.7878 520.419 66.5806ZM525.164 72.8554C525.955 73.6991 525.955 73.91 525.217 74.9646C522.106 79.4466 509.662 79.6048 506.762 75.2283C506.024 74.0155 506.024 73.8046 506.709 73.0663C507.447 72.3281 507.816 72.3808 510.506 73.2245C514.038 74.3318 519.681 74.1209 522.106 72.8027C524.11 71.6954 524.163 71.6954 525.164 72.8554Z" fill="white"/>
<path d="M167.045 20.3256C165.991 21.3275 166.834 22.6457 169.26 23.8585C172.318 25.4404 174.797 27.8133 176.168 30.5552C177.75 33.6135 177.539 34.7736 175.113 36.3027C172.002 38.201 170.315 40.8902 169.998 44.5813L169.735 47.6924L166.676 48.8524C162.563 50.487 156.71 54.6527 154.865 57.3419C150.119 64.144 154.865 71.948 164.198 72.6335L167.889 72.9499L168.68 75.3227C169.787 78.6447 174.058 82.7049 177.75 84.0759C179.964 84.8141 180.966 85.5523 181.915 87.0815C183.497 89.507 184.393 89.5598 185.343 87.1869C185.764 86.1851 186.555 85.1832 187.083 85.025C187.61 84.8668 189.508 84.0231 191.301 83.1795C195.045 81.3867 197.418 78.8556 198.736 75.2173L199.58 72.739H202.532C206.487 72.7917 209.493 71.4735 212.024 68.6261C215.926 64.144 215.451 60.0838 210.389 55.1272C208.122 52.9126 205.854 51.3834 202.48 49.7488L197.681 47.4814L197.576 44.9504C197.365 40.943 195.467 38.1483 190.932 35.1954C189.666 34.3517 189.666 34.3517 190.563 32.0316C191.881 28.6042 194.148 26.1786 197.734 24.2276C201.003 22.4876 201.952 20.8529 200.16 20.1147C198.841 19.6401 194.887 21.433 192.303 23.7003C190.141 25.6513 186.714 31.2407 186.714 32.9808C186.714 33.4553 185.87 33.6663 183.866 33.6663H181.019L180.07 31.0298C178.646 27.075 175.851 23.7003 172.213 21.6966C169.102 20.0093 167.731 19.6401 167.045 20.3256ZM178.277 50.8034C179.279 52.0162 178.646 57.3946 177.169 60.3475C175.482 63.6695 171.053 67.6242 167.731 68.7315C163.829 70.0498 161.192 69.417 158.398 66.6223C155.128 63.3531 155.498 61.1384 159.98 57.0255C165.411 52.0162 176.273 48.3778 178.277 50.8034ZM195.625 50.8034C197.47 51.278 200.423 52.3853 202.216 53.3344C205.96 55.3382 210.706 59.8729 211.075 61.8239C211.655 64.7241 208.175 68.5733 204.378 69.3115C199.843 70.1552 193.094 66.0423 190.51 60.9802C189.245 58.3965 188.19 53.6508 188.559 52.3853C188.717 51.9635 188.928 51.2253 189.086 50.8034C189.403 49.8015 191.301 49.8015 195.625 50.8034ZM186.292 59.9257C186.819 61.3494 187.821 63.3531 188.559 64.4604C189.297 65.515 189.877 66.5169 189.877 66.6223C189.877 67.0969 182.759 67.5187 180.175 67.2024L177.328 66.8332L179.12 63.8277C180.122 62.193 181.071 60.242 181.282 59.5038C181.757 57.5001 181.915 57.3946 183.708 57.3946C185.29 57.3946 185.501 57.6055 186.292 59.9257ZM194.676 75.7446C193.674 77.6428 189.877 80.4375 187.452 81.123C184.077 82.0721 179.701 81.4921 176.8 79.6993C174.533 78.3283 172.002 75.5864 172.529 75.1118C172.635 75.0064 174.428 75.27 176.431 75.6918C180.65 76.5882 187.979 76.3246 192.25 75.1645C193.727 74.7427 194.939 74.4791 195.045 74.5845C195.15 74.6372 194.992 75.1645 194.676 75.7446Z" fill="white"/>
<path d="M63.7431 22.3403C63.1104 22.604 62.1085 23.4477 61.4758 24.2913C58.3647 28.1933 63.7431 33.2554 68.0142 30.4607C69.227 29.6698 69.3852 29.7225 71.0726 30.988C72.0217 31.7262 73.1818 32.939 73.5509 33.6772C74.2363 34.9427 74.1309 35.1009 72.0217 36.8937C69.2798 39.2666 67.8561 41.9558 67.4342 45.6996L67.1178 48.4943L63.8486 49.1798C56.6246 50.6562 51.5626 54.6637 50.3498 59.8312C47.8715 70.1135 59.0502 80.3958 68.4888 76.441C69.5961 75.9665 70.6507 75.5974 70.8616 75.5974C71.0726 75.5974 71.7581 76.652 72.3381 77.9175C73.6563 80.6067 78.6656 86.196 81.2494 87.7252L83.0422 88.8853L84.835 87.7779C87.4715 86.1433 92.639 80.3958 93.7991 77.812C94.9064 75.3864 95.2755 75.2283 97.2792 76.3883C99.3884 77.6011 104.503 77.3902 107.562 75.9137C115.893 72.0645 118.635 60.6221 112.676 54.3473C110.673 52.1854 105.821 49.8653 101.867 49.127L98.4393 48.4943L98.1756 45.5414C97.8065 41.323 96.0665 38.3702 92.5863 35.9446L91.3735 35.0482L92.4808 33.4663C93.1136 32.5699 94.3264 31.3571 95.1701 30.7771C96.6465 29.7225 96.8574 29.7225 97.912 30.4607C101.023 32.6754 105.189 30.5134 105.189 26.6642C105.189 23.975 103.396 22.2349 100.654 22.2349C99.1248 22.2349 98.3338 22.5513 97.4374 23.6586C96.7519 24.3968 96.2246 25.3459 96.2246 25.7678C96.2246 26.1369 95.0646 27.3497 93.6409 28.4043C92.1645 29.4589 90.5298 31.0407 89.9498 31.9899L88.8952 33.6772L83.0949 33.6245L77.2419 33.5718L74.9218 30.988C73.6563 29.5643 72.0217 28.0879 71.2835 27.666C70.5453 27.2442 69.8598 26.3478 69.6489 25.4514C69.227 23.184 65.9578 21.4439 63.7431 22.3403ZM86.9442 36.261C90.5298 37.3683 93.3772 39.4248 94.6428 41.8503C96.1719 44.8032 95.961 44.9614 93.8518 42.5358C91.1099 39.3193 87.9461 37.9483 83.0949 37.9483C78.0329 37.9483 74.3418 39.4775 71.6526 42.5886C70.0707 44.4341 69.9125 44.5396 70.3871 43.3268C71.6526 39.7939 74.0782 37.632 78.4547 36.261C81.4076 35.3646 83.9386 35.3646 86.9442 36.261ZM79.773 51.1308L81.3549 51.4471L80.3003 55.2437C78.9293 60.2003 75.6601 66.897 73.3399 69.6389C69.5434 74.0682 65.5359 75.5446 61.0012 74.2264C53.8299 72.1699 50.1916 63.2059 54.1463 57.3001C55.7809 54.8219 59.7884 52.5545 64.2177 51.6053C67.6451 50.8671 76.9783 50.6035 79.773 51.1308ZM104.398 52.3436C110.409 54.5055 113.362 58.0384 113.309 62.9422C113.204 68.637 108.985 73.5936 103.238 74.701C98.7029 75.5974 93.2718 71.8536 89.6862 65.4205C88.0515 62.5204 84.6241 53.3981 84.6241 51.9744C84.6241 51.078 86.5751 50.8671 94.1155 51.0253C99.8103 51.1835 101.867 51.3944 104.398 52.3436ZM83.8332 58.302C84.1495 59.6203 84.0441 59.7784 82.884 59.7784C81.6185 59.7784 81.5658 59.7257 82.1458 57.9329C82.7258 55.9292 83.3059 56.0346 83.8332 58.302ZM87.4188 66.5806C87.9461 67.5297 88.2625 68.4789 88.1043 68.5843C87.5242 69.2171 82.7786 69.7444 80.7221 69.4807C77.0838 68.9534 77.0838 68.9534 78.3493 66.7915C79.5093 64.7878 79.5093 64.7878 82.9895 64.7878C86.4696 64.7878 86.5224 64.7878 87.4188 66.5806ZM92.1645 72.8554C92.9554 73.6991 92.9554 73.91 92.2172 74.9646C89.1061 79.4466 76.6619 79.6048 73.7618 75.2283C73.0236 74.0155 73.0236 73.8046 73.7091 73.0663C74.4473 72.3281 74.8164 72.3808 77.5056 73.2245C81.0385 74.3318 86.6806 74.1209 89.1061 72.8027C91.1099 71.6954 91.1626 71.6954 92.1645 72.8554Z" fill="white"/>
</svg>
