<svg width="235" height="291" viewBox="0 0 235 291" fill="none" xmlns="http://www.w3.org/2000/svg">
<path d="M160 14.1596C155.2 10.5596 147.167 5.99304 143.5 4.6597C134.5 -0.340195 108.031 -2.85605 92.0001 5.1596C76.0001 13.1597 38.0001 39.1597 23.5001 54.6596C9.19854 69.9474 8.00006 78.1597 5.00006 85.1597C2.00006 92.1597 1.12186e-05 106.148 0 117.16C-1.12019e-05 128.16 1.94507 136.5 5.50001 149.16C8.06481 158.293 17.2882 167.9 23.5 173.16C27.4451 176.5 47.4451 192.5 67.5 203.66C80.6146 210.957 92.5 215.16 101.5 216.16C107.5 216.826 117 217.66 117 215.16C117 212.66 116 153.16 116 150.16C116 148.16 116 147.16 114 147.16C110 147.16 45 146.66 39 146.16C33 145.66 30.0001 137.16 30.0001 133.66V133.659C30.0001 132.278 30.0001 130.66 32.5 130.66H93.5001C95.5001 130.66 97.5001 130.66 95.0001 128.16C92.5001 125.66 61 95.1596 59.5 93.1596C56.9451 89.753 56.9451 85 60 81.6597C62.4333 78.999 66.9451 78.6047 70 81.6597C72.5 84.1597 112.225 121.885 113.5 123.16C114.5 124.16 116.5 124.66 116.5 122.66C116.5 119.16 116.571 94.658 116.5 93.1597C116.445 92 115.635 90.7945 114 89.1596C111 86.1596 100.364 76.4799 98.5 73.1597C96.4451 69.5 95.9451 65.1596 98.9451 62.5C102.649 59.2164 106.121 59.6728 108.5 61.1597C111.445 63 119.451 73.6102 122 76.1597C123.5 77.6597 125.39 77.4051 126.945 76.1597C130.89 73.0001 135 69.1596 139.5 65.1596C144 61.1596 147.945 61.5 151 65.1596C153.311 67.9275 153.945 73 149.945 76.6596C145.739 80.5078 135.5 89.1596 133.5 90.6596C131.5 92.1596 131 92.6596 131 96.6596V133.66C131 136.16 132.667 136.493 133.5 135.66C136 133.16 167 104.66 174.5 98.1597C181.353 92.2203 186.555 93.8192 188.5 96.6596C190.445 99.5 191.945 103.715 188.5 107.16C183.5 112.16 136 154.16 133.5 156.16C132.5 156.96 131.5 159.021 131.5 161.16V213.16C131.5 214.66 132.002 216.091 133.5 216.16C144.5 216.66 171.5 206.16 178 200.16C180.296 198.041 180.5 197.5 180.5 195.66C180.5 179.656 180.377 149.083 181 144.66C181.445 141.5 185.759 140.581 188.5 140.16C195 139.16 195.945 143 196 145.16C196.065 147.708 196 180.66 196 182.66C196 184.16 196.5 185.16 198 184.66C200.83 183.716 217.144 167.773 223 160.16C229.445 151.781 234 131.16 234.5 122.66C235 114.16 234 92.6596 230.5 81.1596C227 69.6596 216 57.6596 211 52.6596C206 47.6596 166 18.6596 160 14.1596Z" fill="#749773"/>
<path d="M41.043 256.235C43.6035 256.223 44.8838 254.93 44.8838 252.357C44.8838 250.972 44.6735 250.013 44.2529 249.481C43.5355 248.554 43.1768 247.997 43.1768 247.812C43.1768 247.082 44.3333 246.717 46.6465 246.717C48.3535 246.717 49.7018 246.834 50.6914 247.069C51.3841 247.23 51.7305 247.583 51.7305 248.127C51.7305 248.436 51.5758 248.832 51.2666 249.314C50.9697 249.797 50.7965 250.187 50.7471 250.483C50.6976 250.78 50.6048 251.566 50.4688 252.84C50.3451 254.102 50.277 254.782 50.2646 254.881C50.1038 256.019 49.7946 256.792 49.3369 257.2C48.8916 257.608 48.1309 257.973 47.0547 258.295C44.791 258.975 42.682 259.315 40.7275 259.315H39.9854C38.2536 259.315 36.5837 258.981 34.9756 258.313C31.8708 257.027 29.7432 254.844 28.5928 251.764C27.999 250.168 27.7021 248.461 27.7021 246.643V245.863C27.7021 244.132 28.0485 242.437 28.7412 240.779C30.1514 237.378 32.4707 235.064 35.6992 233.84C37.1836 233.271 38.8659 232.986 40.7461 232.986C41.3398 232.986 42.0326 233.042 42.8242 233.153C43.6159 233.265 44.6178 233.32 45.8301 233.32C47.0547 233.32 48.0257 233.592 48.7432 234.137C49.473 234.669 49.8379 235.621 49.8379 236.994C49.8379 238.887 49.4668 239.833 48.7246 239.833C48.3783 239.833 47.5618 239.351 46.2754 238.386C44.9889 237.421 43.9993 236.79 43.3066 236.493C42.6139 236.196 41.6986 236.048 40.5605 236.048C39.4225 236.06 38.3958 236.339 37.4805 236.883C34.7591 238.516 33.3984 241.521 33.3984 245.9C33.3984 249.005 34.1344 251.504 35.6064 253.396C37.0785 255.289 38.8906 256.235 41.043 256.235ZM65.2012 251.411C65.2012 250.854 65.028 250.576 64.6816 250.576H64.1992C63.89 250.638 63.6549 250.669 63.4941 250.669C62.3685 250.669 61.4222 250.997 60.6553 251.652C59.8883 252.308 59.5049 253.05 59.5049 253.879V254.306C59.5049 254.937 59.7028 255.481 60.0986 255.938C60.4945 256.396 60.9769 256.625 61.5459 256.625H62.1396C62.9561 256.625 63.6549 256.371 64.2363 255.864C64.8177 255.357 65.1084 254.862 65.1084 254.38C65.1579 254.132 65.1826 253.972 65.1826 253.897L65.2197 253.601V252.803L65.2383 252.506V251.689C65.2135 251.566 65.2012 251.473 65.2012 251.411ZM72.7344 257.293V257.571C72.7344 257.992 72.2705 258.388 71.3428 258.759C70.415 259.118 69.3141 259.297 68.04 259.297C67.2607 259.297 66.5866 258.944 66.0176 258.239C65.7083 257.843 65.4671 257.646 65.2939 257.646C65.1208 257.633 64.8239 257.775 64.4033 258.072C62.9932 259.037 61.4717 259.52 59.8389 259.52C59.8265 259.52 59.8141 259.526 59.8018 259.538C58.1937 259.538 56.9072 259.124 55.9424 258.295C54.9775 257.466 54.4889 256.303 54.4766 254.807C54.4766 251.59 56.9505 249.568 61.8984 248.739C63.0859 248.554 63.7972 248.411 64.0322 248.312C64.7497 248.016 65.1084 247.354 65.1084 246.327C65.1084 245.3 64.8734 244.564 64.4033 244.119C63.9456 243.661 63.4076 243.433 62.7891 243.433C61.8118 243.433 60.9274 243.958 60.1357 245.01C59.3441 246.049 58.4225 246.568 57.3711 246.568C56.7526 246.568 56.2826 246.401 55.9609 246.067C55.6517 245.721 55.4971 245.368 55.4971 245.01C55.4971 243.921 56.0661 243.055 57.2041 242.412C59.0967 241.348 61.1006 240.816 63.2158 240.816H64.1807C65.2445 240.816 66.2588 241.045 67.2236 241.503C68.2008 241.948 68.9554 242.635 69.4873 243.562C70.0192 244.49 70.2852 246.562 70.2852 249.778C70.2852 252.994 70.3841 254.85 70.582 255.345C70.7923 255.827 71.2005 256.186 71.8066 256.421C72.4251 256.644 72.7344 256.934 72.7344 257.293ZM84.0156 242.802C85.4505 241.812 86.6751 241.317 87.6895 241.317C88.7038 241.317 89.3903 241.534 89.749 241.967C90.1201 242.4 90.3057 242.919 90.3057 243.525C90.3057 244.132 90.1387 244.676 89.8047 245.158C89.4831 245.628 89.112 245.863 88.6914 245.863C88.2832 245.863 87.7142 245.702 86.9844 245.381C86.2546 245.059 85.6917 244.898 85.2959 244.898C84.9001 244.898 84.4548 245.109 83.96 245.529C83.4652 245.95 83.1188 246.55 82.9209 247.329C82.7354 248.108 82.6426 249.333 82.6426 251.003C82.6426 252.66 82.7601 253.737 82.9951 254.231C83.2301 254.714 83.7126 255.351 84.4424 256.143C85.1722 256.934 85.5371 257.584 85.5371 258.091C85.5371 258.685 84.1022 258.981 81.2324 258.981H79.6367L79.2471 258.963C78.9873 258.951 78.7214 258.944 78.4492 258.944L78.0596 258.926C77.7998 258.913 77.5277 258.907 77.2432 258.907C75.9443 258.907 75.2949 258.629 75.2949 258.072C75.2949 257.516 75.6165 256.953 76.2598 256.384C76.9154 255.815 77.3112 255.301 77.4473 254.844C77.5957 254.386 77.6699 252.815 77.6699 250.131C77.6699 247.447 77.5833 245.839 77.4102 245.307C77.2493 244.775 76.8473 244.323 76.2041 243.952C75.5732 243.569 75.2578 243.173 75.2578 242.765C75.2578 242.196 75.6846 241.794 76.5381 241.559C77.8245 241.212 78.9873 241.039 80.0264 241.039C81.0654 241.039 81.7643 241.157 82.123 241.392C82.2715 241.491 82.4385 241.806 82.624 242.338C82.8219 242.87 83.0508 243.136 83.3105 243.136C83.4219 243.136 83.6569 243.024 84.0156 242.802ZM101.457 256.699H101.772C102.898 256.699 103.733 256.272 104.277 255.419C104.648 254.838 104.834 253.533 104.834 251.504V248.925C104.834 246.785 104.611 245.325 104.166 244.546C103.733 243.754 102.886 243.358 101.624 243.358H101.457C100.319 243.358 99.3604 243.946 98.5811 245.121C97.8018 246.284 97.4121 247.719 97.4121 249.426V250.632C97.4121 252.215 97.7152 253.514 98.3213 254.528C99.1872 255.976 100.232 256.699 101.457 256.699ZM104.147 241.243C104.729 241.243 105.02 240.575 105.02 239.239C105.02 237.062 104.549 235.559 103.609 234.73C102.904 234.124 102.552 233.722 102.552 233.524C102.552 233.129 103.133 232.745 104.296 232.374C105.459 232.003 106.516 231.817 107.469 231.817C108.421 231.817 109.04 231.923 109.324 232.133C109.621 232.343 109.819 232.801 109.918 233.506C110.029 234.211 110.085 237.644 110.085 243.804C110.085 249.951 110.153 253.427 110.289 254.231C110.425 255.023 110.679 255.648 111.05 256.105C111.075 256.143 111.31 256.322 111.755 256.644C112.2 256.965 112.423 257.231 112.423 257.441V257.757C112.423 257.942 112.299 258.14 112.052 258.351C111.31 258.969 109.708 259.278 107.246 259.278C106.603 259.278 106.108 259.056 105.762 258.61C105.415 258.165 105.23 257.942 105.205 257.942C104.97 257.955 104.568 258.109 103.999 258.406C102.675 259.124 101.451 259.482 100.325 259.482C100.3 259.482 100.282 259.482 100.27 259.482H99.7871C98.8841 259.482 97.9873 259.272 97.0967 258.852C95.2536 257.986 93.9548 256.501 93.2002 254.398C92.8167 253.31 92.625 252.215 92.625 251.114V250.613C92.625 250.576 92.625 250.545 92.625 250.521C92.625 249.098 92.8786 247.762 93.3857 246.513C94.833 242.913 97.4801 241.113 101.327 241.113C102.28 241.113 102.842 241.119 103.016 241.132L103.405 241.169C103.826 241.218 104.073 241.243 104.147 241.243ZM123.945 243.173H123.407C122.628 243.173 121.88 243.581 121.162 244.397C120.457 245.201 120.104 246.166 120.104 247.292V247.589C120.104 248.047 120.358 248.275 120.865 248.275L121.051 248.312H122.368L122.461 248.294L125.56 248.108C125.745 248.071 125.869 248.053 125.931 248.053C126.562 248.053 126.877 247.725 126.877 247.069V246.457C126.877 245.628 126.58 244.874 125.986 244.193C125.393 243.513 124.712 243.173 123.945 243.173ZM120.327 252.005C120.327 253.242 120.909 254.312 122.071 255.215C122.937 255.895 124.038 256.235 125.374 256.235C125.98 256.235 126.877 256.062 128.064 255.716C129.264 255.369 129.957 255.196 130.143 255.196C130.699 255.196 130.978 255.499 130.978 256.105C130.978 256.823 130.235 257.553 128.751 258.295C127.279 259.025 125.751 259.39 124.168 259.39H123.352C123.327 259.39 123.296 259.39 123.259 259.39C122.257 259.39 121.236 259.186 120.197 258.777C118.144 257.986 116.684 256.6 115.818 254.621C115.225 253.26 114.928 251.968 114.928 250.743V249.89C114.928 248.64 115.144 247.434 115.577 246.271C116.394 244.082 117.835 242.505 119.9 241.54C121.137 240.971 122.436 240.687 123.797 240.687H124.224C126.24 240.687 127.941 241.311 129.326 242.561C130.056 243.229 130.613 244.033 130.996 244.973C131.392 245.913 131.59 246.871 131.59 247.849C131.59 248.813 131.114 249.451 130.161 249.76C128.825 250.193 126.351 250.409 122.739 250.409C121.774 250.409 121.131 250.533 120.81 250.78C120.488 251.015 120.327 251.424 120.327 252.005ZM155.896 257.701C155.896 258.159 155.519 258.499 154.765 258.722C154.022 258.932 152.767 259.037 150.998 259.037C149.242 259.037 148.19 258.913 147.844 258.666C147.497 258.419 147.324 258.128 147.324 257.794C147.324 257.448 147.479 256.928 147.788 256.235C148.11 255.543 148.308 254.986 148.382 254.565C148.456 254.145 148.493 252.722 148.493 250.298C148.493 247.873 148.283 246.222 147.862 245.344C147.454 244.453 146.644 244.008 145.432 244.008C144.219 244.008 143.236 244.534 142.481 245.585C141.974 246.29 141.721 247.583 141.721 249.463C141.721 252.568 142.005 254.844 142.574 256.291C142.921 257.132 143.094 257.676 143.094 257.924C143.094 258.394 142.809 258.691 142.24 258.814C141.671 258.926 140.434 258.981 138.529 258.981C136.637 258.981 135.493 258.858 135.097 258.61C134.701 258.351 134.503 258.004 134.503 257.571C134.503 257.138 134.831 256.705 135.486 256.272C136.142 255.84 136.513 255.45 136.6 255.104C136.686 254.745 136.729 253.174 136.729 250.391C136.729 247.595 136.637 245.962 136.451 245.492C136.266 245.01 135.895 244.453 135.338 243.822C134.781 243.191 134.503 242.87 134.503 242.857V242.468C134.503 242.257 134.658 242.066 134.967 241.893C136.043 241.274 137.645 240.965 139.772 240.965C140.366 240.965 140.861 241.256 141.257 241.837C141.665 242.418 141.962 242.709 142.147 242.709C142.333 242.709 142.766 242.511 143.446 242.115C144.139 241.707 144.516 241.491 144.578 241.466C145.568 241.008 146.489 240.779 147.343 240.779H147.937C150.101 240.779 151.647 241.645 152.575 243.377C153.169 244.503 153.466 247.205 153.466 251.485C153.466 253.774 153.54 255.079 153.688 255.4C153.837 255.722 154.239 256.093 154.895 256.514C155.562 256.922 155.896 257.318 155.896 257.701ZM167.066 243.173H166.528C165.749 243.173 165.001 243.581 164.283 244.397C163.578 245.201 163.226 246.166 163.226 247.292V247.589C163.226 248.047 163.479 248.275 163.986 248.275L164.172 248.312H165.489L165.582 248.294L168.681 248.108C168.866 248.071 168.99 248.053 169.052 248.053C169.683 248.053 169.998 247.725 169.998 247.069V246.457C169.998 245.628 169.701 244.874 169.107 244.193C168.514 243.513 167.833 243.173 167.066 243.173ZM163.448 252.005C163.448 253.242 164.03 254.312 165.192 255.215C166.058 255.895 167.159 256.235 168.495 256.235C169.101 256.235 169.998 256.062 171.186 255.716C172.385 255.369 173.078 255.196 173.264 255.196C173.82 255.196 174.099 255.499 174.099 256.105C174.099 256.823 173.356 257.553 171.872 258.295C170.4 259.025 168.872 259.39 167.289 259.39H166.473C166.448 259.39 166.417 259.39 166.38 259.39C165.378 259.39 164.357 259.186 163.318 258.777C161.265 257.986 159.805 256.6 158.939 254.621C158.346 253.26 158.049 251.968 158.049 250.743V249.89C158.049 248.64 158.265 247.434 158.698 246.271C159.515 244.082 160.956 242.505 163.021 241.54C164.258 240.971 165.557 240.687 166.918 240.687H167.345C169.361 240.687 171.062 241.311 172.447 242.561C173.177 243.229 173.734 244.033 174.117 244.973C174.513 245.913 174.711 246.871 174.711 247.849C174.711 248.813 174.235 249.451 173.282 249.76C171.946 250.193 169.472 250.409 165.86 250.409C164.896 250.409 164.252 250.533 163.931 250.78C163.609 251.015 163.448 251.424 163.448 252.005ZM186.4 242.802C187.835 241.812 189.06 241.317 190.074 241.317C191.089 241.317 191.775 241.534 192.134 241.967C192.505 242.4 192.69 242.919 192.69 243.525C192.69 244.132 192.523 244.676 192.189 245.158C191.868 245.628 191.497 245.863 191.076 245.863C190.668 245.863 190.099 245.702 189.369 245.381C188.639 245.059 188.076 244.898 187.681 244.898C187.285 244.898 186.84 245.109 186.345 245.529C185.85 245.95 185.504 246.55 185.306 247.329C185.12 248.108 185.027 249.333 185.027 251.003C185.027 252.66 185.145 253.737 185.38 254.231C185.615 254.714 186.097 255.351 186.827 256.143C187.557 256.934 187.922 257.584 187.922 258.091C187.922 258.685 186.487 258.981 183.617 258.981H182.021L181.632 258.963C181.372 258.951 181.106 258.944 180.834 258.944L180.444 258.926C180.185 258.913 179.912 258.907 179.628 258.907C178.329 258.907 177.68 258.629 177.68 258.072C177.68 257.516 178.001 256.953 178.645 256.384C179.3 255.815 179.696 255.301 179.832 254.844C179.98 254.386 180.055 252.815 180.055 250.131C180.055 247.447 179.968 245.839 179.795 245.307C179.634 244.775 179.232 244.323 178.589 243.952C177.958 243.569 177.643 243.173 177.643 242.765C177.643 242.196 178.069 241.794 178.923 241.559C180.209 241.212 181.372 241.039 182.411 241.039C183.45 241.039 184.149 241.157 184.508 241.392C184.656 241.491 184.823 241.806 185.009 242.338C185.207 242.87 185.436 243.136 185.695 243.136C185.807 243.136 186.042 243.024 186.4 242.802ZM199.129 231.688H199.611C200.452 231.688 201.096 231.96 201.541 232.504C201.999 233.036 202.228 233.803 202.228 234.805V235.584C202.228 236.994 201.776 238.349 200.873 239.647C199.562 241.54 198.424 242.486 197.459 242.486H197.329C196.698 242.486 196.383 242.159 196.383 241.503C196.383 241.392 196.698 240.928 197.329 240.111C197.96 239.283 198.275 238.503 198.275 237.773C198.275 237.526 197.954 237.081 197.311 236.438C196.667 235.794 196.346 235.157 196.346 234.526V234.229C196.346 233.487 196.63 232.881 197.199 232.411C197.781 231.929 198.424 231.688 199.129 231.688ZM217.628 241.521C218.185 241.843 218.463 242.523 218.463 243.562C218.463 244.602 218.389 245.288 218.24 245.622C218.092 245.956 217.801 246.123 217.368 246.123C216.675 246.123 215.927 245.622 215.123 244.62C214.331 243.618 213.329 243.117 212.117 243.117C211.424 243.117 210.874 243.297 210.466 243.655C210.058 244.014 209.854 244.41 209.854 244.843C209.854 245.585 210.212 246.203 210.93 246.698C211.276 246.933 212.383 247.447 214.251 248.238C216.131 249.018 217.473 249.828 218.277 250.669C219.094 251.498 219.502 252.63 219.502 254.064C219.502 255.499 218.89 256.749 217.665 257.812C216.44 258.876 214.869 259.408 212.952 259.408H211.969C209.569 259.408 207.769 259.124 206.569 258.555C205.728 258.159 205.308 257.219 205.308 255.734C205.308 254.25 205.586 253.508 206.143 253.508C206.848 253.508 207.72 254.083 208.759 255.233C209.81 256.384 210.948 256.959 212.173 256.959C212.915 256.959 213.54 256.804 214.047 256.495C214.566 256.174 214.826 255.679 214.826 255.011C214.826 254.33 214.467 253.724 213.75 253.192C213.367 252.908 212.327 252.407 210.633 251.689C208.951 250.96 207.751 250.255 207.033 249.574C205.957 248.56 205.419 247.317 205.419 245.845C205.419 244.36 206.05 243.136 207.312 242.171C208.573 241.194 210.045 240.705 211.728 240.705H212.229C214.876 240.705 216.675 240.977 217.628 241.521ZM85.4443 286.235C88.0049 286.223 89.2852 284.93 89.2852 282.357C89.2852 280.972 89.0749 280.013 88.6543 279.481C87.9368 278.554 87.5781 277.997 87.5781 277.812C87.5781 277.082 88.7347 276.717 91.0479 276.717C92.7549 276.717 94.1032 276.834 95.0928 277.069C95.7855 277.23 96.1318 277.583 96.1318 278.127C96.1318 278.436 95.9772 278.832 95.668 279.314C95.3711 279.797 95.1979 280.187 95.1484 280.483C95.099 280.78 95.0062 281.566 94.8701 282.84C94.7464 284.102 94.6784 284.782 94.666 284.881C94.5052 286.019 94.196 286.792 93.7383 287.2C93.293 287.608 92.5322 287.973 91.4561 288.295C89.1924 288.975 87.0833 289.315 85.1289 289.315H84.3867C82.6549 289.315 80.985 288.981 79.377 288.313C76.2721 287.027 74.1445 284.844 72.9941 281.764C72.4004 280.168 72.1035 278.461 72.1035 276.643V275.863C72.1035 274.132 72.4499 272.437 73.1426 270.779C74.5527 267.378 76.8721 265.064 80.1006 263.84C81.585 263.271 83.2673 262.986 85.1475 262.986C85.7412 262.986 86.4339 263.042 87.2256 263.153C88.0173 263.265 89.0192 263.32 90.2314 263.32C91.4561 263.32 92.4271 263.592 93.1445 264.137C93.8743 264.669 94.2393 265.621 94.2393 266.994C94.2393 268.887 93.8682 269.833 93.126 269.833C92.7796 269.833 91.9632 269.351 90.6768 268.386C89.3903 267.421 88.4007 266.79 87.708 266.493C87.0153 266.196 86.0999 266.048 84.9619 266.048C83.8239 266.06 82.7972 266.339 81.8818 266.883C79.1605 268.516 77.7998 271.521 77.7998 275.9C77.7998 279.005 78.5358 281.504 80.0078 283.396C81.4798 285.289 83.292 286.235 85.4443 286.235ZM107.821 272.802C109.256 271.812 110.481 271.317 111.495 271.317C112.509 271.317 113.196 271.534 113.555 271.967C113.926 272.4 114.111 272.919 114.111 273.525C114.111 274.132 113.944 274.676 113.61 275.158C113.289 275.628 112.918 275.863 112.497 275.863C112.089 275.863 111.52 275.702 110.79 275.381C110.06 275.059 109.497 274.898 109.102 274.898C108.706 274.898 108.26 275.109 107.766 275.529C107.271 275.95 106.924 276.55 106.727 277.329C106.541 278.108 106.448 279.333 106.448 281.003C106.448 282.66 106.566 283.737 106.801 284.231C107.036 284.714 107.518 285.351 108.248 286.143C108.978 286.934 109.343 287.584 109.343 288.091C109.343 288.685 107.908 288.981 105.038 288.981H103.442L103.053 288.963C102.793 288.951 102.527 288.944 102.255 288.944L101.865 288.926C101.605 288.913 101.333 288.907 101.049 288.907C99.75 288.907 99.1006 288.629 99.1006 288.072C99.1006 287.516 99.4222 286.953 100.065 286.384C100.721 285.815 101.117 285.301 101.253 284.844C101.401 284.386 101.476 282.815 101.476 280.131C101.476 277.447 101.389 275.839 101.216 275.307C101.055 274.775 100.653 274.323 100.01 273.952C99.3789 273.569 99.0635 273.173 99.0635 272.765C99.0635 272.196 99.4902 271.794 100.344 271.559C101.63 271.212 102.793 271.039 103.832 271.039C104.871 271.039 105.57 271.157 105.929 271.392C106.077 271.491 106.244 271.806 106.43 272.338C106.628 272.87 106.856 273.136 107.116 273.136C107.228 273.136 107.463 273.024 107.821 272.802ZM125.318 273.099H124.966C123.902 273.099 123.03 273.699 122.35 274.898C121.682 276.098 121.348 277.533 121.348 279.203V280.242C121.348 282.122 121.737 283.712 122.517 285.011C123.296 286.31 124.23 286.959 125.318 286.959H125.671C126.623 286.959 127.452 286.477 128.157 285.512C128.875 284.535 129.233 283.236 129.233 281.615L129.271 281.226L129.289 280.446V280.242L129.271 280.038V279.648C129.246 279.376 129.233 279.178 129.233 279.055C129.233 277.41 128.844 276.006 128.064 274.843C127.285 273.68 126.37 273.099 125.318 273.099ZM125.337 270.631H126.265C127.366 270.631 128.497 270.891 129.66 271.41C131.874 272.4 133.396 274.008 134.225 276.234C134.645 277.385 134.855 278.56 134.855 279.76V280.094C134.855 281.38 134.596 282.642 134.076 283.879C133.557 285.116 132.858 286.143 131.979 286.959C130.149 288.617 128.046 289.445 125.671 289.445C125.485 289.445 125.3 289.439 125.114 289.427C123.927 289.427 122.758 289.192 121.607 288.722C120.469 288.239 119.535 287.602 118.806 286.811C117.235 285.079 116.449 282.908 116.449 280.298V279.982L116.468 279.667C116.48 278.517 116.697 277.379 117.117 276.253C117.934 274.101 119.43 272.511 121.607 271.484C122.832 270.915 124.075 270.631 125.337 270.631ZM149.959 271.985C149.959 271.404 151.357 271.113 154.152 271.113C155.872 271.113 156.731 271.466 156.731 272.171C156.731 272.641 156.367 273.21 155.637 273.878C154.907 274.534 154.356 275.232 153.985 275.975C153.973 275.999 153.175 277.941 151.592 281.801C150.008 285.635 149.007 287.85 148.586 288.443C148.165 289.037 147.535 289.334 146.693 289.334C145.852 289.334 145.203 289 144.745 288.332C144.287 287.664 143.329 285.524 141.869 281.912C140.41 278.3 139.513 276.179 139.179 275.548C138.845 274.917 138.288 274.28 137.509 273.637C136.742 272.981 136.358 272.493 136.358 272.171V271.818C136.358 271.348 138.004 271.113 141.294 271.113L142.203 271.095C143.49 271.095 144.294 271.175 144.615 271.336C144.937 271.497 145.098 271.757 145.098 272.115C145.098 272.462 145.005 272.802 144.819 273.136C144.634 273.457 144.541 273.835 144.541 274.268C144.541 275.851 145.364 278.492 147.009 282.19C147.355 282.957 147.596 283.341 147.732 283.341C147.868 283.341 148.104 282.945 148.438 282.153C149.971 278.517 150.738 276.006 150.738 274.62C150.738 274.237 150.608 273.785 150.349 273.266C150.089 272.746 149.959 272.319 149.959 271.985ZM167.271 273.173H166.732C165.953 273.173 165.205 273.581 164.487 274.397C163.782 275.201 163.43 276.166 163.43 277.292V277.589C163.43 278.047 163.683 278.275 164.19 278.275L164.376 278.312H165.693L165.786 278.294L168.885 278.108C169.07 278.071 169.194 278.053 169.256 278.053C169.887 278.053 170.202 277.725 170.202 277.069V276.457C170.202 275.628 169.905 274.874 169.312 274.193C168.718 273.513 168.037 273.173 167.271 273.173ZM163.652 282.005C163.652 283.242 164.234 284.312 165.396 285.215C166.262 285.895 167.363 286.235 168.699 286.235C169.305 286.235 170.202 286.062 171.39 285.716C172.59 285.369 173.282 285.196 173.468 285.196C174.024 285.196 174.303 285.499 174.303 286.105C174.303 286.823 173.561 287.553 172.076 288.295C170.604 289.025 169.076 289.39 167.493 289.39H166.677C166.652 289.39 166.621 289.39 166.584 289.39C165.582 289.39 164.562 289.186 163.522 288.777C161.469 287.986 160.009 286.6 159.144 284.621C158.55 283.26 158.253 281.968 158.253 280.743V279.89C158.253 278.64 158.469 277.434 158.902 276.271C159.719 274.082 161.16 272.505 163.226 271.54C164.463 270.971 165.761 270.687 167.122 270.687H167.549C169.565 270.687 171.266 271.311 172.651 272.561C173.381 273.229 173.938 274.033 174.321 274.973C174.717 275.913 174.915 276.871 174.915 277.849C174.915 278.813 174.439 279.451 173.486 279.76C172.15 280.193 169.676 280.409 166.064 280.409C165.1 280.409 164.456 280.533 164.135 280.78C163.813 281.015 163.652 281.424 163.652 282.005Z" fill="black"/>
</svg>
