<svg width="425" height="71" viewBox="0 0 425 71" fill="none" xmlns="http://www.w3.org/2000/svg">
<path d="M22.9395 32.9971C22.9395 34.667 23.2324 35.8096 23.8184 36.4248C24.4336 37.0107 25.7812 37.3037 27.8613 37.3037H29.9707C32.9883 37.3037 35.4492 36.1758 37.3535 33.9199C39.2578 31.6641 40.21 28.4707 40.21 24.3398L40.166 23.9004C40.166 19.7402 39.082 16.4736 36.9141 14.1006C34.7461 11.7275 31.9922 10.541 28.6523 10.541H27.5537C25.0928 10.541 23.6426 11.1416 23.2031 12.3428C23.0566 12.7236 22.9834 14.9355 22.9834 18.9785V25.6582L22.9395 27.3281V32.9971ZM4.96582 63.8027C4.96582 61.7812 5.83008 60.1846 7.55859 59.0127C9.28711 57.8115 10.2832 56.4785 10.5469 55.0137C10.957 52.6992 11.1621 46.0928 11.1621 35.1943C11.1621 24.2959 10.8984 17.7627 10.3711 15.5947C9.84375 13.3975 9.09668 11.8887 8.12988 11.0684C6.02051 9.31055 4.96582 8.16797 4.96582 7.64062V6.9375C4.96582 5.73633 6.06445 4.97461 8.26172 4.65234C8.87695 4.56445 11.9971 4.52051 17.6221 4.52051L23.4229 4.43262H24.5654L28.0371 4.56445H31.5527C41.9238 4.56445 48.8379 7.77246 52.2949 14.1885C53.6133 16.6494 54.2725 19.2568 54.2725 22.0107V23.2412C54.2725 28.1631 52.4707 32.3232 48.8672 35.7217C45.2637 39.0908 40.1807 41.0684 33.6182 41.6543C29.751 42.0059 27.5684 42.2988 27.0703 42.5332C25.1074 43.4121 24.126 46.6787 24.126 52.333C24.126 54.9404 25.0342 56.9766 26.8506 58.4414C29.2822 60.4043 30.498 62.0596 30.498 63.4072C30.498 64.4619 29.3701 65.1943 27.1143 65.6045C24.8877 66.0146 21.6504 66.2197 17.4023 66.2197C9.11133 66.2197 4.96582 65.4141 4.96582 63.8027ZM80.4199 28.3389H79.585C77.0654 28.3389 75 29.7598 73.3887 32.6016C71.8066 35.4434 71.0156 38.8418 71.0156 42.7969V45.2578C71.0156 49.7109 71.9385 53.4756 73.7842 56.5518C75.6299 59.6279 77.8418 61.166 80.4199 61.166H81.2549C83.5107 61.166 85.4736 60.0234 87.1436 57.7383C88.8428 55.4238 89.6924 52.3477 89.6924 48.5098L89.7803 47.5869L89.8242 45.7412V45.2578L89.7803 44.7744V43.8516C89.7217 43.207 89.6924 42.7383 89.6924 42.4453C89.6924 38.5488 88.7695 35.2236 86.9238 32.4697C85.0781 29.7158 82.9102 28.3389 80.4199 28.3389ZM80.4639 22.4941H82.6611C85.2686 22.4941 87.9492 23.1094 90.7031 24.3398C95.9473 26.6836 99.5508 30.4922 101.514 35.7656C102.51 38.4902 103.008 41.2734 103.008 44.1152V44.9062C103.008 47.9531 102.393 50.9414 101.162 53.8711C99.9316 56.8008 98.2764 59.2324 96.1963 61.166C91.8604 65.0918 86.8799 67.0547 81.2549 67.0547C80.8154 67.0547 80.376 67.04 79.9365 67.0107C77.124 67.0107 74.3555 66.4541 71.6309 65.3408C68.9355 64.1982 66.7236 62.6895 64.9951 60.8145C61.2744 56.7129 59.4141 51.5713 59.4141 45.3896V44.6426L59.458 43.8955C59.4873 41.1709 60 38.4756 60.9961 35.8096C62.9297 30.7119 66.4746 26.9473 71.6309 24.5156C74.5312 23.168 77.4756 22.4941 80.4639 22.4941ZM109.204 5.04785C109.204 3.99316 109.966 3.23145 111.489 2.7627C115.62 1.50293 119.575 0.873047 123.354 0.873047C125.581 0.873047 126.812 1.83984 127.046 3.77344C127.104 4.24219 127.134 12.0937 127.134 27.3281C127.134 42.5625 127.383 51.5713 127.881 54.3545C128.408 57.1084 129.111 58.9834 129.99 59.9795C132.217 62.499 133.33 63.8174 133.33 63.9346C133.33 65.3408 129.404 66.0439 121.553 66.0439H120.674L119.751 66C115.063 66 112.251 65.8828 111.313 65.6484C110.405 65.4141 109.951 64.8721 109.951 64.0225C109.951 63.1436 110.669 61.8252 112.104 60.0674C113.54 58.2803 114.448 56.4053 114.829 54.4424C115.21 52.4502 115.4 45.126 115.4 32.4697C115.4 19.8135 115.195 12.7969 114.785 11.4199C114.375 10.0137 113.335 8.7832 111.665 7.72852C110.024 6.64453 109.204 5.75098 109.204 5.04785ZM139.175 5.04785C139.175 3.99316 139.937 3.23145 141.46 2.7627C145.591 1.50293 149.546 0.873047 153.325 0.873047C155.552 0.873047 156.782 1.83984 157.017 3.77344C157.075 4.24219 157.104 12.0937 157.104 27.3281C157.104 42.5625 157.354 51.5713 157.852 54.3545C158.379 57.1084 159.082 58.9834 159.961 59.9795C162.188 62.499 163.301 63.8174 163.301 63.9346C163.301 65.3408 159.375 66.0439 151.523 66.0439H150.645L149.722 66C145.034 66 142.222 65.8828 141.284 65.6484C140.376 65.4141 139.922 64.8721 139.922 64.0225C139.922 63.1436 140.64 61.8252 142.075 60.0674C143.511 58.2803 144.419 56.4053 144.8 54.4424C145.181 52.4502 145.371 45.126 145.371 32.4697C145.371 19.8135 145.166 12.7969 144.756 11.4199C144.346 10.0137 143.306 8.7832 141.636 7.72852C139.995 6.64453 139.175 5.75098 139.175 5.04785ZM174.595 9.00293C174.595 7.30371 175.254 5.86816 176.572 4.69629C177.92 3.52441 179.37 2.93848 180.923 2.93848H182.329C182.769 3.02637 183.135 3.07031 183.428 3.07031C184.834 3.07031 186.079 3.7002 187.163 4.95996C188.247 6.21973 188.789 7.4209 188.789 8.56348V9.70605C188.73 9.99902 188.701 10.2188 188.701 10.3652C188.701 11.5957 188.013 12.7969 186.636 13.9688C185.259 15.1406 183.735 15.7266 182.065 15.7266H180.703C179.062 15.7266 177.642 15.2139 176.44 14.1885C175.269 13.1338 174.683 11.9326 174.683 10.585L174.595 10.1455V9.00293ZM182.944 66.1758H178.77C174.873 66.1758 172.529 66.0732 171.738 65.8682C170.977 65.6338 170.596 65.0039 170.596 63.9785C170.596 62.9238 171.328 61.6641 172.793 60.1992C174.258 58.7344 175.181 57.2695 175.562 55.8047C175.942 54.3105 176.133 50.458 176.133 44.2471C176.133 38.0068 175.972 34.3301 175.649 33.2168C175.327 32.1035 174.316 31.1514 172.617 30.3604C170.947 29.54 170.112 28.5732 170.112 27.46C170.112 26.3174 170.889 25.4824 172.441 24.9551C175.957 23.7832 179.839 23.1973 184.087 23.1973H184.746C186.445 23.1973 187.427 23.915 187.69 25.3506C187.837 26.1709 187.91 31.0928 187.91 40.1162C187.91 49.1104 188.101 54.3838 188.481 55.9365C188.892 57.46 189.917 59.0859 191.558 60.8145C193.198 62.543 194.019 63.627 194.019 64.0664V64.5938C194.019 65.6484 190.327 66.1758 182.944 66.1758ZM250.972 62.9238C250.972 64.0078 250.078 64.8135 248.291 65.3408C246.533 65.8389 243.56 66.0879 239.37 66.0879C235.21 66.0879 232.72 65.7949 231.899 65.209C231.079 64.623 230.669 63.9346 230.669 63.1436C230.669 62.3232 231.035 61.0928 231.768 59.4521C232.529 57.8115 232.998 56.4932 233.174 55.4971C233.35 54.501 233.438 51.1318 233.438 45.3896C233.438 39.6475 232.939 35.7363 231.943 33.6562C230.977 31.5469 229.058 30.4922 226.187 30.4922C223.315 30.4922 220.986 31.7373 219.199 34.2275C217.998 35.8975 217.397 38.959 217.397 43.4121C217.397 50.7656 218.071 56.1562 219.419 59.584C220.239 61.5762 220.649 62.8652 220.649 63.4512C220.649 64.5645 219.976 65.2676 218.628 65.5605C217.28 65.8242 214.351 65.9561 209.839 65.9561C205.356 65.9561 202.646 65.6631 201.709 65.0771C200.771 64.4619 200.303 63.6416 200.303 62.6162C200.303 61.5908 201.079 60.5654 202.632 59.54C204.185 58.5146 205.063 57.5918 205.269 56.7715C205.474 55.9219 205.576 52.2012 205.576 45.6094C205.576 38.9883 205.356 35.1211 204.917 34.0078C204.478 32.8652 203.599 31.5469 202.28 30.0527C200.962 28.5586 200.303 27.7969 200.303 27.7676V26.8447C200.303 26.3467 200.669 25.8926 201.401 25.4824C203.95 24.0176 207.744 23.2852 212.783 23.2852C214.189 23.2852 215.361 23.9736 216.299 25.3506C217.266 26.7275 217.969 27.416 218.408 27.416C218.848 27.416 219.873 26.9473 221.484 26.0098C223.125 25.043 224.019 24.5303 224.165 24.4717C226.509 23.3877 228.691 22.8457 230.713 22.8457H232.119C237.246 22.8457 240.908 24.8965 243.105 28.998C244.512 31.6641 245.215 38.0654 245.215 48.2021C245.215 53.6221 245.391 56.7129 245.742 57.4746C246.094 58.2363 247.046 59.1152 248.599 60.1113C250.181 61.0781 250.972 62.0156 250.972 62.9238ZM281.47 48.0264C281.47 46.708 281.06 46.0488 280.239 46.0488H279.097C278.364 46.1953 277.808 46.2686 277.427 46.2686C274.761 46.2686 272.52 47.0449 270.703 48.5977C268.887 50.1504 267.979 51.9082 267.979 53.8711V54.8818C267.979 56.376 268.447 57.665 269.385 58.749C270.322 59.833 271.465 60.375 272.812 60.375H274.219C276.152 60.375 277.808 59.7744 279.185 58.5732C280.562 57.3721 281.25 56.2002 281.25 55.0576C281.367 54.4717 281.426 54.0908 281.426 53.915L281.514 53.2119V51.3223L281.558 50.6191V48.6855C281.499 48.3926 281.47 48.1729 281.47 48.0264ZM299.312 61.957V62.6162C299.312 63.6123 298.213 64.5498 296.016 65.4287C293.818 66.2783 291.211 66.7031 288.193 66.7031C286.348 66.7031 284.751 65.8682 283.403 64.1982C282.671 63.2607 282.1 62.792 281.689 62.792C281.279 62.7627 280.576 63.0996 279.58 63.8027C276.24 66.0879 272.637 67.2305 268.77 67.2305C268.74 67.2305 268.711 67.2451 268.682 67.2744C264.873 67.2744 261.826 66.293 259.541 64.3301C257.256 62.3672 256.099 59.6133 256.069 56.0684C256.069 48.4512 261.929 43.6611 273.647 41.6982C276.46 41.2588 278.145 40.9219 278.701 40.6875C280.4 39.9844 281.25 38.417 281.25 35.9854C281.25 33.5537 280.693 31.8105 279.58 30.7559C278.496 29.6719 277.222 29.1299 275.757 29.1299C273.442 29.1299 271.348 30.375 269.473 32.8652C267.598 35.3262 265.415 36.5566 262.925 36.5566C261.46 36.5566 260.347 36.1611 259.585 35.3701C258.853 34.5498 258.486 33.7148 258.486 32.8652C258.486 30.2871 259.834 28.2363 262.529 26.7129C267.012 24.1934 271.758 22.9336 276.768 22.9336H279.053C281.572 22.9336 283.975 23.4756 286.26 24.5596C288.574 25.6143 290.361 27.2402 291.621 29.4375C292.881 31.6348 293.511 36.542 293.511 44.1592C293.511 51.7764 293.745 56.1709 294.214 57.3428C294.712 58.4854 295.679 59.335 297.114 59.8916C298.579 60.4189 299.312 61.1074 299.312 61.957ZM306.387 29.5254C305.098 28.6465 304.453 27.7969 304.453 26.9766C304.453 26.127 305.229 25.292 306.782 24.4717C308.335 23.6514 309.302 22.9922 309.683 22.4941C310.063 21.9961 310.664 20.6191 311.484 18.3633C312.334 16.1074 313.228 14.3789 314.165 13.1777C315.103 11.9473 316.333 11.332 317.856 11.332C319.38 11.332 320.479 11.9473 321.152 13.1777C321.445 13.7344 321.826 15.0527 322.295 17.1328C322.793 19.2129 323.379 20.5459 324.053 21.1318C324.727 21.7178 326.016 22.377 327.92 23.1094C329.824 23.8125 330.806 24.1787 330.864 24.208C331.86 24.999 332.358 25.9365 332.358 27.0205C332.358 27.958 330.967 28.793 328.184 29.5254C325.43 30.2578 323.657 31.3711 322.866 32.8652C322.104 34.3594 321.724 38.0947 321.724 44.0713C321.724 50.0479 322.178 53.9297 323.086 55.7168C324.023 57.5039 325.547 58.3975 327.656 58.3975L329.238 58.2656C329.941 58.207 330.703 58.1777 331.523 58.1777C333.311 58.1777 334.204 58.8516 334.204 60.1992C334.204 61.9277 333.12 63.3047 330.952 64.3301C327.847 65.7949 324.565 66.5273 321.108 66.5273C319.497 66.5273 317.886 66.0879 316.274 65.209C314.663 64.3301 313.433 63.2607 312.583 62.001C310.913 59.54 310.078 56.0244 310.078 51.4541L310.034 50.5312C310.005 49.8867 309.99 49.1689 309.99 48.3779V45.7852C309.99 40.7168 309.58 36.3955 308.76 32.8213C308.467 31.5029 307.676 30.4043 306.387 29.5254Z" fill="white"/>
<path d="M407.302 27.6357C410.7 25.292 413.601 24.1201 416.003 24.1201C418.405 24.1201 420.031 24.6328 420.881 25.6582C421.76 26.6836 422.199 27.9141 422.199 29.3496C422.199 30.7852 421.804 32.0742 421.013 33.2168C420.251 34.3301 419.372 34.8867 418.376 34.8867C417.409 34.8867 416.062 34.5059 414.333 33.7441C412.604 32.9824 411.271 32.6016 410.334 32.6016C409.396 32.6016 408.342 33.0996 407.17 34.0957C405.998 35.0918 405.178 36.5127 404.709 38.3584C404.27 40.2041 404.05 43.1045 404.05 47.0596C404.05 50.9854 404.328 53.5342 404.885 54.7061C405.441 55.8486 406.584 57.3574 408.312 59.2324C410.041 61.1074 410.905 62.6455 410.905 63.8467C410.905 65.2529 407.507 65.9561 400.71 65.9561H396.931L396.008 65.9121C395.393 65.8828 394.763 65.8682 394.118 65.8682L393.195 65.8242C392.58 65.7949 391.936 65.7803 391.262 65.7803C388.186 65.7803 386.647 65.1211 386.647 63.8027C386.647 62.4844 387.409 61.1514 388.933 59.8037C390.485 58.4561 391.423 57.2402 391.745 56.1562C392.097 55.0723 392.272 51.3516 392.272 44.9941C392.272 38.6367 392.067 34.8281 391.657 33.5684C391.276 32.3086 390.324 31.2393 388.801 30.3604C387.307 29.4521 386.56 28.5146 386.56 27.5479C386.56 26.2002 387.57 25.248 389.592 24.6914C392.639 23.8711 395.393 23.4609 397.854 23.4609C400.314 23.4609 401.97 23.7393 402.819 24.2959C403.171 24.5303 403.566 25.2773 404.006 26.5371C404.475 27.7969 405.017 28.4268 405.632 28.4268C405.896 28.4268 406.452 28.1631 407.302 27.6357Z" fill="white"/>
<path d="M348.283 52.6689C348.283 52.083 348.649 51.2188 349.382 50.0762C350.114 48.9336 350.48 48.1279 350.48 47.6592C350.48 47.5713 350.026 47.2783 349.118 46.7803C348.239 46.2529 347.287 45.374 346.262 44.1436C345.236 42.8838 344.724 41.8584 344.724 41.0674C344.724 40.2764 345.207 39.4707 346.174 38.6504C347.17 37.8008 348.107 37.376 348.986 37.376C349.895 37.376 351.755 38.2842 354.567 40.1006C355.388 40.6279 356.003 40.8916 356.413 40.8916C356.882 40.8916 357.116 40.584 357.116 39.9688L357.028 39.1338L356.765 37.2881C356.56 35.5303 356.457 34.0508 356.457 32.8496C356.457 31.6191 356.75 30.667 357.336 29.9932C357.922 29.3193 359.021 28.9824 360.632 28.9824C362.243 28.9824 363.342 29.3047 363.928 29.9492C364.543 30.5645 364.851 31.9854 364.851 34.2119C364.851 34.5342 364.675 35.8965 364.323 38.2988C364.118 39.793 364.016 40.833 364.016 41.4189C364.016 41.7705 364.06 41.9463 364.147 41.9463C364.528 41.9463 365.905 41.126 368.278 39.4854C370.681 37.8154 372.321 36.9805 373.2 36.9805C374.079 36.9805 375.002 37.4199 375.969 38.2988C376.936 39.1777 377.419 40.2617 377.419 41.5508C377.419 43.1914 375.5 44.8906 371.662 46.6484C370.08 47.3516 369.289 47.791 369.289 47.9668C369.289 48.9922 369.816 49.8857 370.871 50.6475C372.834 52.083 373.815 53.7529 373.815 55.6572C373.815 57.5322 373.303 58.4697 372.277 58.4697C370.549 58.4697 369.011 58.25 367.663 57.8105C366.345 57.3711 365.51 57.1514 365.158 57.1514C364.953 57.1514 364.382 57.7959 363.444 59.085C362.507 60.374 360.734 61.0186 358.127 61.0186H357.644C357.351 61.0186 356.926 60.5938 356.369 59.7441C355.168 57.957 354.084 57.0635 353.117 57.0635L350.129 57.2832C348.898 57.2832 348.283 55.7451 348.283 52.6689Z" fill="white"/>
</svg>
