<svg width="20" height="24" viewBox="0 0 20 24" fill="none" xmlns="http://www.w3.org/2000/svg">
<path d="M5 18C3.17107 18.4117 2 19.0443 2 19.7537C2 20.9943 5.58172 22 10 22C14.4183 22 18 20.9943 18 19.7537C18 19.0443 16.8289 18.4117 15 18" stroke="black" stroke-width="2.5" stroke-linecap="round"/>
<path d="M12.5 9C12.5 10.3807 11.3807 11.5 10 11.5C8.6193 11.5 7.5 10.3807 7.5 9C7.5 7.61929 8.6193 6.5 10 6.5C11.3807 6.5 12.5 7.61929 12.5 9Z" stroke="black" stroke-width="2.5"/>
<path d="M11.2574 17.4936C10.9201 17.8184 10.4693 18 10.0002 18C9.531 18 9.0802 17.8184 8.7429 17.4936C5.6543 14.5008 1.51519 11.1575 3.53371 6.30373C4.6251 3.67932 7.24494 2 10.0002 2C12.7554 2 15.3752 3.67933 16.4666 6.30373C18.4826 11.1514 14.3536 14.5111 11.2574 17.4936Z" stroke="black" stroke-width="2.5"/>
</svg>
